<?xml version="1.0" encoding="UTF-8" standalone="no"?>
<!-- Created with Inkscape (http://www.inkscape.org/) -->

<svg
   xmlns:dc="http://purl.org/dc/elements/1.1/"
   xmlns:cc="http://creativecommons.org/ns#"
   xmlns:rdf="http://www.w3.org/1999/02/22-rdf-syntax-ns#"
   xmlns:svg="http://www.w3.org/2000/svg"
   xmlns="http://www.w3.org/2000/svg"
   xmlns:sodipodi="http://sodipodi.sourceforge.net/DTD/sodipodi-0.dtd"
   xmlns:inkscape="http://www.inkscape.org/namespaces/inkscape"
   width="1772"
   height="1103"
   id="svg2"
   sodipodi:version="0.32"
   inkscape:version="0.91 r"
   version="1.0"
   sodipodi:docname="neurone.svg"
   inkscape:output_extension="org.inkscape.output.svg.inkscape"
   style="display:inline">
  <defs
     id="defs4">
    <inkscape:perspective
       sodipodi:type="inkscape:persp3d"
       inkscape:vp_x="0 : 526.18109 : 1"
       inkscape:vp_y="0 : 1000 : 0"
       inkscape:vp_z="744.09448 : 526.18109 : 1"
       inkscape:persp3d-origin="372.04724 : 350.78739 : 1"
       id="perspective10" />
    <inkscape:perspective
       id="perspective2390"
       inkscape:persp3d-origin="372.04724 : 350.78739 : 1"
       inkscape:vp_z="744.09448 : 526.18109 : 1"
       inkscape:vp_y="0 : 1000 : 0"
       inkscape:vp_x="0 : 526.18109 : 1"
       sodipodi:type="inkscape:persp3d" />
  </defs>
  <sodipodi:namedview
     id="base"
     pagecolor="#ffffff"
     bordercolor="#666666"
     borderopacity="1.0"
     gridtolerance="10000"
     guidetolerance="10"
     objecttolerance="10"
     inkscape:pageopacity="0.0"
     inkscape:pageshadow="2"
     inkscape:zoom="0.39588312"
     inkscape:cx="875.2826"
     inkscape:cy="579.57157"
     inkscape:document-units="px"
     inkscape:current-layer="layer11"
     showgrid="false"
     inkscape:window-width="1680"
     inkscape:window-height="975"
     inkscape:window-x="0"
     inkscape:window-y="25"
     inkscape:window-maximized="0" />
  <metadata
     id="metadata7">
    <rdf:RDF>
      <cc:Work
         rdf:about="">
        <dc:format>image/svg+xml</dc:format>
        <dc:type
           rdf:resource="http://purl.org/dc/dcmitype/StillImage" />
      </cc:Work>
    </rdf:RDF>
  </metadata>
  <g
     inkscape:groupmode="layer"
     id="layer11"
     inkscape:label="neurone"
     style="display:inline">
    <g
       id="g3348">
      <path
         sodipodi:nodetypes="cssssssssssssssssssssssscccsssssssssssssssssssssssssssssssssscccsssssssssssssssssssssssssssssssssssssssscccsssssssssssscccssssssscccsssssssssssssscc"
         id="path2487"
         d="M 843.88537,477.16255 C 841.39267,475.83092 837.43097,471.20212 837.43097,469.62127 C 837.43097,468.22997 840.10509,465.92656 842.45486,465.29384 C 845.30282,464.52696 846.01727,464.87089 846.01727,467.00871 C 846.01727,469.49036 846.90897,469.73405 847.83961,467.50673 C 849.21864,464.20629 847.74767,458.7137 842.79519,448.67062 C 839.58704,442.16483 839.42264,440.98038 840.74537,433.9014 C 842.52472,424.37864 844.92166,419.12652 850.88012,411.69427 C 855.38392,406.07653 868.61684,390.9306 875.51603,383.49694 C 882.73866,375.71478 887.4781,367.26639 895.33755,348.16362 C 897.67834,342.47423 900.2528,336.44107 901.05858,334.7566 C 904.30151,327.97727 911.72631,318.06143 924.36634,303.62898 C 942.48312,282.94315 952.0442,269.4897 957.00698,257.70025 C 962.41253,244.85896 964.91058,233.62052 964.92179,222.09238 C 964.9276,216.12191 964.76236,214.57488 963.86014,212.15308 C 960.8994,204.20563 953.30011,196.74361 938.80713,187.55265 C 932.8123,183.75092 927.9727,181.29183 924.43587,180.25035 C 922.98048,179.8218 916.44751,178.43031 909.91814,177.15817 C 897.645,174.76695 895.54948,174.21386 894.90141,173.19465 C 894.11497,171.95782 894.47189,167.82938 895.44981,166.85146 C 897.48564,164.81562 912.15188,165.05421 921.55879,167.2762 C 930.51415,169.39153 937.31492,172.48443 948.68821,179.61433 C 952.50005,182.00396 958.74398,185.92185 962.56362,188.32076 C 977.9403,197.978 995.42393,207.28737 1006.1264,211.51632 C 1021.1496,217.4525 1034.2594,218.96193 1071.5338,219.04711 L 1095.3986,218.47347 L 1101.3333,220.52001 C 1108.278,222.68206 1112.8816,225.13514 1116.1749,228.42849 C 1123.6057,235.85931 1127.5499,250.08893 1125.0809,260.55912 C 1124.6773,262.27039 1123.0057,266.81607 1121.3661,270.66064 C 1117.4613,279.81703 1117.481,279.74498 1118.701,280.39793 C 1119.2517,280.69264 1120.1637,280.93376 1120.7278,280.93376 C 1121.2919,280.93376 1121.968,281.3347 1122.2302,281.82473 C 1123.3101,283.84248 1120.2531,287.63942 1115.9805,289.58706 C 1113.6887,290.63181 1107.5824,290.85741 1104.5316,290.01005 C 1102.0013,289.30728 1099.5656,286.46677 1099.5656,284.21886 C 1099.5656,281.58086 1101.1116,280.42869 1104.6516,280.42869 C 1107.227,280.42869 1107.6957,280.25745 1109.1447,278.78719 C 1113.3808,274.48909 1118.4593,263.74122 1119.0856,257.74883 C 1120.1768,247.30912 1112.0337,236.48667 1099.513,231.73605 C 1097.7363,231.06191 1095.2598,230.04182 1094.0097,229.46918 C 1091.1678,228.1673 1090.549,228.16243 1065.7989,229.24679 C 1041.8503,230.29604 1027.2289,229.8196 1015.9754,227.6233 C 1012.3641,226.91849 1006.7708,226.20605 1003.5458,226.0401 C 996.4951,225.67727 995.87099,226.02184 995.29992,230.59254 C 994.89053,233.86914 995.12878,236.01153 996.82603,244.31573 C 997.50734,247.64924 998.50211,253.85657 999.03663,258.10982 C 1000.0678,266.31527 1000.7088,268.12221 1003.262,270.02183 C 1004.6046,271.02072 1005.2023,271.07502 1013.1829,270.9228 C 1018.2623,270.82592 1025.8072,271.1039 1031.9573,271.61452 C 1039.2125,272.21691 1043.6519,272.3471 1047.0376,272.05678 C 1049.6766,271.8305 1053.6415,270.96021 1056.0027,270.97162 C 1059.8296,270.9901 1060.9746,271.91039 1065.5098,273.74526 C 1068.308,274.8774 1071.4494,275.96352 1072.4907,276.15887 C 1075.2201,276.6709 1077.2786,278.59047 1077.6607,280.97984 C 1078.0025,283.11732 1078.3793,283.38111 1079.3758,282.18045 C 1079.8997,281.54931 1079.851,280.85587 1079.112,278.41522 C 1078.2894,275.69833 1078.2779,275.31428 1078.9862,274.2332 C 1080.3571,272.14103 1086.6259,271.00596 1087.9563,272.60902 C 1089.0413,273.9164 1088.263,278.90529 1086.3683,282.78735 C 1084.3683,286.88506 1080.0286,291.54036 1078.2086,291.54036 C 1076.4585,291.54036 1073.7161,289.37002 1068.3256,283.71909 L 1063.6021,278.76741 L 1054.1834,279.07764 C 1049.0032,279.24827 1041.2419,279.84651 1036.9361,280.40706 C 1027.8947,281.58412 1018.9263,281.69751 1012.4613,280.71649 C 1005.2251,279.61846 999.50543,281.01013 996.92955,284.49562 C 995.6876,286.17613 995.11216,293.11252 995.61072,300.39277 C 996.0728,307.14034 997.63741,310.83669 1001.9419,315.35013 C 1006.8608,320.50781 1013.4662,323.76657 1024.8512,326.65254 C 1030.9827,328.20678 1034.1989,329.74425 1036.7023,332.31777 C 1038.9142,334.59161 1039.5209,335.70704 1041.5126,341.16232 C 1042.3497,343.45508 1043.5127,345.99004 1044.097,346.79555 C 1044.7851,347.74421 1045.3437,349.65681 1045.6829,352.22512 C 1045.9708,354.40586 1046.3634,356.19013 1046.5554,356.19013 C 1046.7474,356.19013 1047.296,354.7696 1047.7744,353.0334 C 1048.8812,349.01688 1049.5343,347.09875 1051.0019,347.09875 C 1052.9948,347.09875 1056.5078,350.7384 1056.5078,353.57884 C 1056.5078,356.32435 1051.8233,361.54594 1048.3003,363.40655 C 1043.9995,365.67794 1035.2007,364.53067 1031.5065,360.99305 C 1029.565,359.13377 1030.0131,357.84996 1032.7359,355.08557 C 1034.9097,352.87861 1035.6236,352.44665 1035.8126,349.76492 C 1035.9653,347.59918 1035.7301,346.07994 1034.901,343.87595 C 1032.4156,337.26923 1028.2044,334.73918 1013.4501,330.98835 C 1001.1174,327.85319 996.75497,325.87152 993.87757,322.09748 C 991.27449,318.68325 988.27302,313.05978 986.92405,309.51381 C 985.81798,306.60635 986.6865,308.10076 986.67531,281.94392 C 986.66386,255.21434 986.53343,252.63969 984.6027,241.03274 C 983.53359,234.60542 982.22472,230.97771 980.3659,229.28971 C 978.50779,227.60234 978.11878,227.57823 976.63829,229.05872 C 975.35964,230.33735 975.02459,231.19658 971.36339,242.5856 C 966.584,257.45295 959.31483,272.14653 950.97127,283.80524 C 948.74761,286.91241 943.05359,294.1855 938.31787,299.96768 C 927.84484,312.75493 922.6972,319.63658 920.98066,323.14506 C 919.92121,325.31051 919.5836,327.0428 919.13179,332.63184 C 918.13017,345.02197 919.71211,351.6261 924.82783,356.41125 C 929.59921,360.87433 933.85181,362.09301 942.45218,361.46191 C 945.66584,361.22608 950.51754,360.51799 953.15657,360.50567 C 958.91608,360.4788 959.73528,361.36801 967.48646,367.27713 C 973.57514,371.91886 975.02313,372.38805 979.26115,371.09266 C 983.89407,369.67656 985.3284,368.9579 986.5026,370.02054 C 987.9608,371.34021 987.559,374.66774 985.17574,379.55526 C 982.01437,386.03849 978.33771,389.52516 974.66254,389.52516 C 971.28341,389.52516 969.91079,386.69442 971.81184,381.87142 C 973.68579,377.11718 973.44764,376.38407 961.11051,370.81741 L 953.34598,367.31398 L 942.48683,368.3057 C 936.6532,368.29556 931.10999,367.045 929.85993,366.7613 C 928.60986,366.47761 926.33702,365.42273 924.80917,364.41713 C 920.80483,361.78155 913.76078,354.43178 911.51744,350.54851 C 910.45732,348.71341 909.02657,346.68269 908.33801,346.03583 C 906.16547,343.99484 905.95344,344.28989 898.86298,359.22059 C 894.84748,367.67622 889.30753,375.96665 881.31466,385.48137 C 869.38085,399.6874 865.21017,407.22085 865.21017,414.57074 C 865.21017,419.15996 871.10772,435.15602 876.07222,444.03214 C 880.59502,452.11853 887.38502,457.33729 899.80789,462.27524 C 911.68139,466.99484 919.95949,468.52121 929.35485,467.72337 C 943.30278,466.53892 947.50343,464.78399 968.49826,451.37 C 979.30057,444.46822 984.0778,441.99643 988.34737,441.09989 C 989.81946,440.79079 995.58348,440.53787 1001.1563,440.53787 L 1011.2888,440.53787 L 1015.2726,436.79015 C 1021.2091,431.20551 1023.6099,431.21917 1026.1888,436.85228 C 1027.2582,439.18807 1027.4271,440.16086 1027.2173,442.77505 C 1026.9326,446.32185 1025.3769,450.24783 1023.4651,452.24423 C 1022.7528,452.98801 1021.0352,454.08475 1019.6482,454.68146 C 1017.5217,455.59624 1016.9013,455.67318 1015.6916,455.17211 C 1014.3264,454.60661 1012.6924,452.72667 1012.6924,451.72135 C 1012.6924,451.06073 1014.0029,450.61556 1017.3985,450.12276 C 1021.2702,449.56086 1021.7844,449.06615 1021.7813,445.90559 L 1021.7788,443.31578 L 1020.6449,444.66152 C 1018.2026,447.56004 1014.471,448.51666 1010.3443,447.30212 C 1008.0524,446.62756 1005.5755,446.44241 999.30792,446.47706 C 985.27363,446.55465 981.95213,447.5729 972.53887,454.68337 C 964.74729,460.5689 959.94802,463.62693 952.08328,467.71749 C 935.21588,476.49044 922.53925,478.29189 905.70741,474.30786 C 892.52528,471.18768 888.68507,469.11902 880.10051,460.51369 C 866.50313,446.88342 861.39176,437.77662 859.11159,423.11829 C 857.80047,414.68959 856.16696,411.84256 853.77909,413.82431 C 852.59243,414.80916 849.69279,420.86964 848.02143,425.85833 C 846.28626,431.03748 846.04014,436.1853 847.25479,441.8938 C 848.87744,449.51989 851.23876,454.39136 857.11721,462.24048 C 861.36206,467.90833 862.14421,469.96688 861.09888,472.7197 C 860.49524,474.30936 859.80809,474.91886 857.01044,476.34613 C 854.30586,477.72592 852.92551,478.0984 849.9587,478.24903 C 846.76858,478.41098 845.94741,478.26409 843.88538,477.16254 L 843.88537,477.16255 z"
         style="opacity:1;fill:#ff6600;fill-opacity:1;fill-rule:nonzero;stroke:#ff6600;stroke-width:1;stroke-linecap:butt;stroke-linejoin:miter;marker:none;marker-start:none;marker-mid:none;marker-end:none;stroke-miterlimit:0;stroke-dasharray:none;stroke-dashoffset:0;stroke-opacity:1;visibility:visible;display:inline;overflow:visible;enable-background:accumulate" />
      <path
         id="path3259"
         d="M 1157.8646,210.47862 C 1157.8646,209.52656 1159.7596,206.96972 1162.7615,203.87148 C 1170.0892,196.30851 1172.8773,189.69349 1172.8489,179.93776 C 1172.8298,173.33416 1171.3642,169.72446 1167.3028,166.27754 C 1164.0549,163.52096 1153.0776,158.94417 1150.568,159.30019 C 1149.1223,159.50527 1148.9613,159.87269 1149.1575,162.51935 C 1149.3398,164.98051 1149.1063,165.65288 1147.8323,166.33474 C 1145.5622,167.54964 1141.9736,166.59949 1139.6425,164.16637 C 1135.8696,160.22834 1136.3916,150.97991 1140.7241,144.99891 C 1141.9063,143.36694 1143.4543,142.03169 1144.1641,142.03169 C 1145.7782,142.03169 1148.3626,144.7814 1151.6328,149.97807 C 1155.077,155.45126 1156.4976,156.65472 1163.9361,160.40078 C 1173.4662,165.20021 1178.3569,168.83754 1179.3578,171.87019 C 1180.4367,175.13965 1179.7564,182.521 1177.7871,188.91144 C 1174.9613,198.08031 1171.8053,202.75946 1164.5491,208.53806 C 1159.7418,212.36634 1157.8646,212.91131 1157.8646,210.47862 z"
         style="opacity:1;fill:#ff6600;fill-opacity:1;fill-rule:nonzero;stroke:#ff6600;stroke-width:3;stroke-linecap:butt;stroke-linejoin:miter;marker:none;marker-start:none;marker-mid:none;marker-end:none;stroke-miterlimit:0;stroke-dasharray:none;stroke-dashoffset:0;stroke-opacity:1;visibility:visible;display:inline;overflow:visible;enable-background:accumulate" />
      <path
         id="path3261"
         d="M 1305.3646,432.44302 C 1302.4698,431.14438 1298.1817,426.55387 1296.8281,423.30463 C 1294.3577,417.37471 1296.2253,413.47617 1302.3597,411.75764 C 1304.4053,411.18457 1307.8693,410.21003 1310.0576,409.59199 C 1316.2964,407.82991 1320.1229,404.76425 1331.3131,392.56282 C 1339.7849,383.32546 1343.177,380.1988 1349.4209,375.87174 C 1358.3808,369.66254 1359.2932,368.83782 1359.2932,366.9482 C 1359.2932,362.04911 1349.8577,359.53976 1331.4361,359.53961 C 1319.1522,359.53949 1318.8234,359.57958 1312.4227,361.85702 C 1305.3369,364.37822 1302.1503,364.78087 1302.1503,363.15499 C 1302.1503,361.81302 1308.2648,358.96769 1316.1604,356.63543 C 1321.7348,354.98882 1323.3336,354.80969 1329.2932,355.16389 C 1333.0253,355.38573 1340.0968,356.35079 1345.0075,357.3085 C 1349.9182,358.26623 1357.8158,359.27062 1362.5576,359.54052 L 1371.1791,360.03126 L 1377.9147,355.60041 C 1387.0585,349.58541 1392.5827,346.89625 1403.4226,343.18331 C 1415.2473,339.13299 1418.3978,337.49898 1433.9361,327.35705 C 1448.6468,317.7552 1452.8329,315.53847 1469.6503,308.44444 C 1476.3289,305.62724 1484.0432,302.15988 1486.7932,300.73919 C 1493.8517,297.09266 1500.304,290.46296 1504.6525,282.38883 C 1509.7708,272.88524 1512.5578,268.70026 1516.6717,264.34019 C 1521.4016,259.32736 1525.2461,256.75203 1541.4361,247.75129 C 1548.7039,243.71075 1559.2606,237.67356 1564.8953,234.33532 C 1575.9624,227.77871 1584.4985,223.82639 1586.1901,224.47554 C 1586.8016,224.71014 1587.1537,225.55651 1587.0218,226.47429 C 1586.8559,227.62962 1583.2674,230.49373 1573.9361,236.91863 C 1557.4666,248.25827 1550.6318,252.37695 1537.8646,258.65554 C 1528.0232,263.49529 1527.1696,264.08874 1520.7218,270.57336 C 1513.0894,278.2493 1506.7923,287.74975 1504.2027,295.49606 C 1502.6549,300.12582 1502.6358,300.57119 1503.4491,313.10311 C 1504.0302,322.05883 1504.0602,326.76504 1503.5478,328.61242 C 1503.1431,330.07113 1500.815,333.88578 1498.3741,337.08946 C 1487.7811,350.99261 1487.7421,351.10199 1486.4129,370.60311 C 1485.9978,376.6924 1485.0555,384.24597 1484.3188,387.38883 C 1483.5821,390.53169 1482.9938,393.92979 1483.0113,394.94016 C 1483.0288,395.95054 1482.2464,398.03981 1481.2726,399.58301 C 1478.4697,404.02455 1478.3758,405.00829 1480.3927,408.80161 C 1483.8688,415.33912 1481.5189,418.44029 1472.6583,419.00893 L 1467.3576,419.3491 L 1464.0397,416.17 C 1458.6687,411.0237 1459.7578,406.62434 1466.2678,407.16894 C 1468.7383,407.37562 1468.9538,407.59285 1469.8506,410.78169 C 1470.3754,412.64776 1471.1014,414.17454 1471.464,414.17454 C 1472.1951,414.17454 1472.4111,413.29858 1473.5338,405.77936 C 1473.9593,402.92986 1475.4172,397.6263 1476.7736,393.99365 C 1479.8396,385.78161 1480.6011,380.80109 1481.2856,364.48204 L 1481.8271,351.57523 L 1487.0137,343.62096 C 1494.745,331.7641 1496.0789,328.55231 1496.0789,321.79452 C 1496.0789,316.37912 1496.0043,316.13356 1493.7462,314.11595 C 1491.6479,312.24119 1490.9196,312.03169 1486.5001,312.03169 C 1477.6383,312.03169 1468.0617,315.78362 1454.2148,324.6805 C 1449.3473,327.80806 1440.7039,333.03341 1435.0075,336.29242 C 1424.6501,342.21799 1419.9945,345.50587 1416.2606,349.53169 C 1413.2683,352.75804 1407.9133,363.97451 1407.1826,368.5462 C 1406.3947,373.47691 1407.3022,384.35519 1408.6555,386.20096 C 1409.2027,386.94725 1411.3476,390.01076 1413.4219,393.00877 C 1420.8288,403.71375 1422.8708,405.30711 1430.5821,406.39916 C 1433.1512,406.76301 1435.6801,407.41494 1436.2018,407.84792 C 1439.7733,410.81201 1432.8775,418.55543 1425.1886,420.21501 C 1422.2916,420.84028 1418.4991,419.64026 1417.299,417.71856 C 1415.9764,415.6008 1416.8015,414.88934 1420.5853,414.88484 C 1424.1883,414.88054 1429.2938,413.71139 1429.2922,412.89097 C 1429.2916,412.61479 1427.4431,411.84579 1425.1841,411.18206 C 1417.0868,408.80288 1406.4702,399.89983 1403.0476,392.61848 C 1400.0794,386.304 1399.0988,374.69236 1401.0073,368.46026 C 1401.5487,366.6924 1402.8309,363.35776 1403.8567,361.04995 C 1406.1823,355.8178 1406.191,354.51494 1403.9103,353.02054 C 1402.2183,351.9119 1401.7953,351.91576 1397.4973,353.07917 C 1394.9665,353.76422 1390.5585,355.50539 1387.7016,356.94841 C 1380.8557,360.40639 1359.1201,375.73687 1357.4808,378.26359 C 1352.3815,386.1236 1336.7267,400.41504 1326.7698,406.30018 C 1318.6994,411.0702 1315.8571,413.54175 1313.1712,418.12496 C 1312.0306,420.07122 1310.6111,421.49722 1309.549,421.7638 C 1307.2417,422.34289 1307.7157,423.46121 1310.6866,424.44819 C 1313.6742,425.44071 1316.0457,428.45733 1315.4108,430.45758 C 1314.935,431.95671 1311.6529,433.48158 1309.0081,433.4323 C 1308.1827,433.41691 1306.5432,432.97174 1305.3646,432.44302 z"
         style="opacity:1;fill:#ff6600;fill-opacity:1;fill-rule:nonzero;stroke:#ff6600;stroke-width:3;stroke-linecap:butt;stroke-linejoin:miter;marker:none;marker-start:none;marker-mid:none;marker-end:none;stroke-miterlimit:0;stroke-dasharray:none;stroke-dashoffset:0;stroke-opacity:1;visibility:visible;display:inline;overflow:visible;enable-background:accumulate" />
      <path
         id="path3263"
         d="M 1053.7356,765.33317 C 1052.078,763.53491 1050.7218,761.71859 1050.7218,761.29692 C 1050.7218,759.5095 1060.4197,756.98714 1082.1503,753.12254 C 1098.1366,750.27954 1101.3829,748.98561 1114.9524,740.04801 C 1124.784,733.57243 1132.5973,726.07762 1135.2619,720.56658 C 1140.476,709.78245 1138.4701,698.82476 1129.5104,689.1472 C 1124.8326,684.09462 1122.5679,683.2514 1109.2942,681.62 C 1095.3418,679.90519 1092.0221,678.95141 1076.4361,672.17937 C 1063.3256,666.48298 1061.8787,666.08998 1053.9361,666.06804 C 1047.3451,666.04984 1046.2848,666.25185 1040.213,668.68285 C 1036.5939,670.13184 1032.681,671.3174 1031.5178,671.3174 C 1026.638,671.3174 1022.9701,665.16273 1023.8598,658.46765 C 1024.3657,654.66023 1026.2879,652.74597 1029.605,652.74597 C 1032.7214,652.74597 1034.758,655.09111 1035.8258,659.90944 C 1036.3021,662.05882 1036.7655,663.92184 1036.8556,664.04948 C 1036.9456,664.17714 1038.2649,663.45725 1039.7873,662.44977 C 1044.3441,659.43422 1049.5806,658.16649 1057.5075,658.15979 C 1064.5093,658.15388 1064.8305,658.22832 1073.7717,661.92852 C 1091.7225,669.3573 1106.2003,673.34769 1117.5248,673.98792 C 1122.8869,674.29107 1124.1316,674.15854 1124.9272,673.19984 C 1126.4133,671.40918 1125.3731,667.81249 1120.9139,659.32322 C 1118.7042,655.11645 1115.0617,647.41607 1112.8196,642.21126 C 1105.5337,625.29817 1100.2941,618.10918 1091.0571,612.35203 C 1082.1277,606.78659 1067.9803,601.95122 1064.1194,603.14514 C 1063.2328,603.41929 1061.0366,605.00938 1059.2388,606.67866 C 1055.0318,610.58504 1053.2465,611.15802 1050.8145,609.38239 C 1044.9386,605.09229 1044.6788,593.19153 1050.3795,589.45627 C 1052.0171,588.38324 1052.2871,588.38558 1053.9686,589.48732 C 1056.9575,591.44576 1057.6601,593.83125 1056.1007,596.72687 C 1055.3732,598.0778 1054.9491,599.35422 1055.1582,599.5634 C 1055.3674,599.77259 1057.1853,598.92005 1059.198,597.66892 C 1064.183,594.57009 1068.6304,594.1757 1074.0989,596.3476 C 1086.1815,601.14644 1093.1811,605.58598 1103.2295,614.82379 C 1107.1144,618.39529 1110.6945,621.3174 1111.1853,621.3174 C 1112.3017,621.3174 1115.3813,617.27155 1116.0785,614.88883 C 1118.1841,607.69317 1127.6906,594.08752 1135.5592,587.00804 C 1143.9268,579.47952 1155.0706,573.1812 1166.6573,569.4318 L 1172.7961,567.44529 L 1172.3855,564.44955 C 1171.9914,561.57432 1172.0902,561.37745 1174.8423,559.55618 C 1182.5599,554.44893 1190.0075,559.45695 1190.0075,569.75379 C 1190.0075,575.41406 1188.9707,578.09207 1186.2737,579.39826 C 1183.5927,580.69676 1182.8608,580.47064 1177.9347,576.82222 L 1174.0763,573.96449 L 1168.9321,575.17722 C 1151.67,579.24677 1133.8821,594.25368 1125.0138,612.22933 C 1120.3059,621.77183 1118.1854,630.03464 1119.2138,634.82969 C 1120.1483,639.1869 1128.8707,658.32418 1130.7981,660.24597 L 1132.2308,661.67454 L 1134.1549,659.40172 C 1135.2131,658.15171 1137.1741,655.58028 1138.5126,653.68746 C 1146.9811,641.71218 1169.2953,627.6872 1181.6563,626.57067 C 1185.6295,626.21181 1186.3611,626.36464 1188.8554,628.07494 C 1190.8446,629.43889 1191.8508,629.75981 1192.4038,629.20675 C 1193.4156,628.19503 1191.0381,623.65691 1189.1888,623.06998 C 1187.2564,622.45667 1187.5708,620.67949 1189.7588,619.84762 C 1191.2783,619.26981 1192.2948,619.44982 1194.9002,620.75815 C 1199.0942,622.86427 1200.8381,625.34525 1201.2678,629.81788 C 1201.5924,633.19557 1201.4544,633.58474 1199.0966,635.94252 C 1195.6775,639.36163 1193.775,639.22645 1189.2932,635.24597 C 1185.8933,632.22634 1185.4268,632.0326 1181.5908,632.04675 C 1176.1912,632.06665 1169.2633,634.57287 1162.7309,638.86935 C 1157.0754,642.5891 1143.561,655.64502 1140.3615,660.47975 C 1138.5203,663.26204 1138.4166,663.80499 1138.8704,668.28656 C 1139.5558,675.05476 1143.1566,690.24734 1145.4086,695.87291 C 1147.4168,700.88926 1150.4604,704.17494 1153.098,704.17398 C 1156.9592,704.17258 1172.3796,694.98234 1184.0788,685.71001 C 1187.536,682.97002 1193.2575,677.71281 1196.7932,674.0273 C 1208.9523,661.35307 1216.9476,657.326 1240.3646,652.08098 C 1254.3323,648.95247 1257.1951,646.41019 1255.1384,638.96151 C 1254.2839,635.86681 1255.059,634.50407 1258.2778,633.44177 C 1260.2011,632.80699 1261.6118,632.80051 1264.0529,633.41517 C 1270.266,634.97963 1272.4334,637.73497 1272.0176,643.54039 C 1271.8328,646.12245 1271.5418,646.67454 1270.366,646.67454 C 1269.4476,646.67454 1268.4291,645.72037 1267.5088,643.9979 C 1266.7223,642.52576 1265.8628,641.32039 1265.5986,641.31933 C 1265.3344,641.31828 1264.7716,642.36799 1264.3478,643.65203 C 1263.543,646.09059 1257.9084,653.00429 1255.811,654.12679 C 1255.1434,654.48404 1249.5175,655.61898 1243.3088,656.64885 C 1230.259,658.81349 1227.6409,659.59464 1219.0686,663.88103 C 1210.1817,668.32474 1204.4073,672.70145 1202.4253,676.49597 C 1201.5251,678.21969 1201.5353,678.72307 1202.5091,680.60617 C 1204.0218,683.5315 1208.3438,686.23954 1214.1172,687.87944 C 1220.4666,689.68295 1239.8551,690.38049 1252.1503,689.24778 C 1276.0743,687.04374 1297.2445,681.89202 1299.4151,677.74597 C 1299.7235,677.15669 1300.3213,675.29192 1300.7435,673.60204 C 1301.6596,669.93416 1302.8938,669.29752 1306.1124,670.83237 C 1311.3143,673.313 1317.1503,680.27671 1317.1503,684.00323 C 1317.1503,687.28517 1313.2656,688.04064 1310.6182,685.27359 C 1309.3305,683.92772 1308.9361,682.71347 1308.9361,680.09502 C 1308.9361,675.98922 1307.7989,675.0587 1306.7494,678.30566 C 1305.609,681.83389 1303.6753,683.32752 1298.1949,684.9135 C 1292.5587,686.54455 1273.2821,689.96959 1259.5634,691.77747 C 1248.7183,693.20665 1225.6133,693.35418 1208.4573,692.10376 L 1197.2643,691.28797 L 1190.2431,694.26047 C 1180.4539,698.40479 1173.8131,703.04409 1158.731,716.27499 C 1140.3741,732.37867 1124.9921,743.74999 1114.1145,749.25824 C 1108.5702,752.06578 1093.3757,758.72841 1084.7961,762.11402 C 1078.2421,764.70032 1068.6316,767.06806 1060.3427,768.13863 C 1056.7766,768.59921 1056.7265,768.57795 1053.7356,765.33317 L 1053.7356,765.33317 z M 1183.2218,565.60312 C 1183.2218,564.85326 1182.3106,564.46577 1180.1861,564.31204 C 1177.8763,564.14493 1177.1503,564.34659 1177.1503,565.15522 C 1177.1503,566.23191 1179.1858,566.93899 1181.7932,566.76814 C 1182.5789,566.71667 1183.2218,566.1924 1183.2218,565.60312 z"
         style="opacity:1;fill:#ff6600;fill-opacity:1;fill-rule:nonzero;stroke:#ff6600;stroke-width:2;stroke-linecap:butt;stroke-linejoin:miter;marker:none;marker-start:none;marker-mid:none;marker-end:none;stroke-miterlimit:0;stroke-dasharray:none;stroke-dashoffset:0;stroke-opacity:1;visibility:visible;display:inline;overflow:visible;enable-background:accumulate" />
      <path
         id="path2415"
         d="M 1037.7821,532.50951 C 1025.5514,529.74573 1014.3747,525.29193 1008.9343,521.01383 C 1005.0779,517.98141 1001.0227,511.53998 999.55394,506.11422 C 998.46716,502.09932 998.40216,500.82906 999.11959,497.62321 C 1000.7246,490.45103 1007.8117,481.88104 1019.2279,473.30706 C 1027.3408,467.21401 1063.6017,450.14955 1076.3535,446.42371 C 1079.2999,445.5628 1089.9071,441.54968 1099.9249,437.50564 C 1128.5994,425.93026 1135.0096,424.17719 1149.2281,424.02223 L 1158.2456,423.92396 L 1164.2637,426.9336 C 1172.4861,431.04543 1176.5933,434.75759 1179.3979,440.61192 C 1181.5714,445.14874 1181.6698,445.73633 1181.6869,454.2811 C 1181.7075,464.65594 1180.6616,469.38887 1176.3491,478.43474 C 1170.5951,490.50428 1164.4984,497.60048 1153.3644,505.18751 C 1139.0673,514.92993 1113.1772,525.58241 1094.8397,529.26753 C 1077.2897,532.79436 1046.7274,534.53091 1037.7821,532.50953 L 1037.7821,532.50951 z M 1111.7107,488.27293 C 1119.5065,486.18307 1127.3104,481.81331 1132.3677,476.70603 C 1139.8766,469.12281 1141.4695,464.06983 1138.3178,457.83107 C 1133.0668,447.43691 1121.8547,448.51085 1094.2172,462.05518 C 1082.5184,467.78841 1078.8645,470.91623 1078.1346,475.82236 C 1077.4476,480.44024 1078.1692,482.96944 1080.9399,485.65496 C 1084.8152,489.41095 1087.5836,490.06579 1098.1392,489.72318 C 1103.4362,489.55125 1109.2659,488.92828 1111.7107,488.27292 L 1111.7107,488.27293 z"
         style="opacity:1;fill:#8080ff;fill-opacity:1;fill-rule:nonzero;stroke:#8080ff;stroke-width:2;stroke-linecap:butt;stroke-linejoin:miter;marker:none;marker-start:none;marker-mid:none;marker-end:none;stroke-miterlimit:0;stroke-dasharray:none;stroke-dashoffset:0;stroke-opacity:1;visibility:visible;display:inline;overflow:visible;enable-background:accumulate" />
      <path
         sodipodi:nodetypes="csssssssc"
         id="path2417"
         d="M 1086.6957,488.56862 C 1083.7999,487.66661 1079.4137,483.55283 1078.8182,481.18063 C 1078.5535,480.12582 1078.5548,477.80992 1078.8211,476.03418 C 1079.5741,471.01278 1082.5414,468.63734 1096.6047,461.79786 C 1113.3992,453.63012 1118.1737,451.97693 1125.2821,451.86837 C 1132.2462,451.76201 1135.0856,453.1338 1137.5508,457.79556 C 1140.8301,463.99662 1139.4068,468.48388 1131.7557,476.06681 C 1122.687,485.0546 1113.5694,488.59726 1098.4964,488.98972 C 1093.1928,489.12781 1087.8824,488.93832 1086.6957,488.56862 z"
         style="opacity:1;fill:#2a2aff;fill-opacity:1;fill-rule:nonzero;stroke:#000000;stroke-width:2;stroke-linecap:butt;stroke-linejoin:miter;marker:none;marker-start:none;marker-mid:none;marker-end:none;stroke-miterlimit:0;stroke-dasharray:none;stroke-dashoffset:0;stroke-opacity:1;visibility:visible;display:inline;overflow:visible;enable-background:accumulate" />
      <path
         id="path2437"
         d="M 290.33723,875.66479 C 288.00632,873.8313 287.97636,872.31541 290.18602,868.01431 C 292.42066,863.66459 312.8299,837.47451 318.7103,831.41064 C 324.69342,825.24084 333.1981,820.71662 338.81306,820.71662 C 343.4417,820.71662 346.58628,822.94091 347.71391,827.01254 C 348.34187,829.27992 348.1897,830.16367 346.61732,833.38197 C 341.59461,843.66222 314.52633,868.58789 301.6896,874.75337 C 295.94496,877.51254 292.98803,877.74992 290.33721,875.66478 L 290.33723,875.66479 z"
         style="opacity:1;fill:#8080ff;fill-opacity:1;fill-rule:nonzero;stroke:#8080ff;stroke-width:2;stroke-linecap:butt;stroke-linejoin:miter;marker:none;marker-start:none;marker-mid:none;marker-end:none;stroke-miterlimit:0;stroke-dasharray:none;stroke-dashoffset:0;stroke-opacity:1;visibility:visible;display:inline;overflow:visible;enable-background:accumulate;color:#000000" />
      <path
         sodipodi:nodetypes="cssssssssssscc"
         id="path2441"
         d="M 833.43409,190.62079 C 805.81795,186.55767 796.40581,184.90443 780.03538,181.24132 C 769.52352,178.88906 752.92152,174.40665 743.14238,171.28035 C 725.64524,165.68659 727.21588,168.39151 725.85772,164.99427 C 724.31193,161.1277 729.25147,152.62748 732.63976,146.89058 C 737.34962,138.91575 742.24424,138.71149 743.99781,139.4627 C 750.34324,142.18126 766.39038,146.10586 779.14838,148.0595 C 789.84952,149.6982 804.04913,148.78007 833.47742,148.54703 C 874.43242,148.22271 883.85876,150.53689 890.92747,155.87122 C 894.32419,158.4343 891.86109,158.63663 889.94681,163.87877 C 888.84952,166.88337 889.47177,172.19324 889.63148,175.06125 C 889.98734,181.4474 884.72706,185.5964 873.84735,188.83231 C 866.4892,191.02077 841.38481,191.7906 833.43409,190.6208 L 833.43409,190.62079 z"
         style="opacity:1;fill:#5fbcd3;fill-opacity:1;fill-rule:nonzero;stroke:#5fbcd3;stroke-width:2;stroke-linecap:butt;stroke-linejoin:miter;marker:none;marker-start:none;marker-mid:none;marker-end:none;stroke-miterlimit:0;stroke-dasharray:none;stroke-dashoffset:0;stroke-opacity:1;visibility:visible;display:inline;overflow:visible;enable-background:accumulate" />
      <path
         id="path2443"
         d="M 1598.4341,228.44222 C 1595.6841,226.77485 1592.9618,224.68796 1592.3845,223.8047 C 1588.9941,218.61692 1594.5148,205.90097 1602.4914,200.52556 C 1605.0918,198.77309 1610.5464,196.38035 1614.6125,195.20832 C 1629.4801,190.92282 1654.7105,185.76499 1655.6239,186.82436 C 1658.6608,190.347 1671.6029,210.2119 1671.1369,210.63566 C 1667.6705,213.78782 1634.4345,228.95105 1628.5962,230.04397 C 1615.5757,232.48143 1604.0899,231.87146 1598.4341,228.44222 z"
         style="opacity:1;fill:#5fbcd3;fill-opacity:1;fill-rule:nonzero;stroke:#5fbcd3;stroke-width:2;stroke-linecap:butt;stroke-linejoin:miter;marker:none;marker-start:none;marker-mid:none;marker-end:none;stroke-miterlimit:0;stroke-dasharray:none;stroke-dashoffset:0;stroke-opacity:1;visibility:visible;display:inline;overflow:visible;enable-background:accumulate" />
      <path
         id="path2447"
         d="M 978.85709,851.11365 L 961.42295,843.7514 L 964.04095,839.40362 C 965.48081,837.01239 971.02624,827.02019 976.36395,817.19876 C 994.19809,784.38465 1002.7531,774.05856 1018.0821,766.84369 C 1032.5942,760.01343 1047.9584,762.00409 1051.4417,771.16583 C 1053.4754,776.515 1051.6668,787.49535 1047.4438,795.43782 C 1042.4924,804.75017 1029.1614,822.0289 1011.6419,841.84162 C 1003.4785,851.07376 996.68495,858.59325 996.54524,858.55157 C 996.40538,858.50992 988.44595,855.16282 978.85709,851.1136 L 978.85709,851.11365 z"
         style="opacity:1;fill:#5fbcd3;fill-opacity:1;fill-rule:nonzero;stroke:#5fbcd3;stroke-width:2;stroke-linecap:butt;stroke-linejoin:miter;marker:none;marker-start:none;marker-mid:none;marker-end:none;stroke-miterlimit:0;stroke-dasharray:none;stroke-dashoffset:0;stroke-opacity:1;visibility:visible;display:inline;overflow:visible;enable-background:accumulate" />
      <path
         sodipodi:nodetypes="cssssssssccccssssssssssssssssssssssssssssssssssssssssssscccscccsssssssscsssssssssssssssssssssssssssssscccsssssssssscccssssssssscccssssssssssssssssssssssscccssssccccccssssssssssssssssssssssscccssssssssscccsssscc"
         d="M 1485.6484,417.72462 C 1486.6489,415.09366 1486.5964,412.4306 1485.4774,409.04013 C 1484.5898,406.35069 1482.4233,402.82267 1482.7363,402.5097 C 1483.0493,402.19673 1515.8173,401.63378 1554.4728,401.53652 C 1647.6128,401.30216 1695.6912,395.87858 1729.2783,389.60384 C 1733.0361,388.90186 1736.3919,388.97083 1736.5178,389.1024 C 1736.6435,389.23402 1738.234,393.35829 1737.433,397.39454 C 1735.7851,405.69726 1736.2257,404.32773 1709.952,408.35762 C 1692.6201,411.01598 1585.5029,418.35065 1552.7198,419.33572 C 1538.9698,419.7489 1517.9292,420.40919 1505.9628,420.80309 L 1484.2058,421.51926 L 1485.6484,417.72462 z M 1430.4728,792.72392 C 1428.1729,790.27913 1416.7849,780.27443 1405.1662,770.49123 C 1393.5475,760.708 1373.2975,743.26765 1360.1662,731.73482 C 1347.0349,720.202 1331.6305,706.94233 1325.9341,702.26892 C 1320.2377,697.59546 1313.9698,693.10119 1313.9698,692.49982 C 1313.9698,691.89845 1316.7871,690.93739 1318.2661,690.14585 C 1324.6175,686.74662 1322.3645,677.80512 1313.2544,670.25579 C 1308.9564,666.69406 1306.6042,665.76042 1302.7262,666.07692 C 1298.4257,666.4279 1297.6262,667.07923 1296.9657,670.77019 C 1296.4288,673.7702 1297.086,676.98732 1295.4069,676.7023 C 1292.538,676.21537 1261.2912,657.31187 1261.2912,656.16793 C 1261.2912,654.38152 1266.5259,651.57242 1269.9341,651.5299 C 1274.9462,651.4674 1277.0112,648.96069 1276.9738,642.98447 C 1276.9214,634.62757 1270.2408,628.62733 1260.9887,628.62733 C 1253.6298,628.62733 1249.8627,632.02367 1249.8627,638.65807 C 1249.8627,642.71572 1250.6256,645.00226 1248.6173,646.07707 C 1244.5564,648.25036 1233.2005,647.52073 1228.3449,645.00977 C 1226.0167,643.80585 1219.0059,642.42706 1212.7654,641.94582 C 1201.6279,641.08696 1201.4572,641.01617 1203.4979,638.10265 C 1206.1778,634.27673 1206.1461,628.15755 1203.4192,622.88445 C 1199.3397,614.99535 1190.8774,613.46035 1183.8878,619.34162 C 1181.5534,621.3059 1178.4934,622.91305 1177.0878,622.91305 C 1171.3748,622.91305 1153.9432,633.3749 1143.6689,642.96995 C 1137.8131,648.4386 1132.3894,652.55398 1132.3681,652.91305 C 1131.7678,663.02066 1129.6251,648.38052 1127.0715,642.84075 C 1121.5887,630.94648 1120.5432,627.22165 1127.9815,612.35321 C 1133.5235,601.27544 1145.3579,591.26995 1157.5852,584.25677 C 1165.8732,579.50306 1170.7079,577.51892 1176.5952,580.89776 C 1179.4591,582.54136 1182.2354,584.48247 1185.7669,583.81995 C 1192.5657,582.54447 1194.7105,578.28173 1193.8392,567.77535 C 1193.2855,561.09872 1192.4384,558.95209 1189.2882,556.24242 C 1183.0879,550.90915 1176.7829,554.05886 1169.8889,561.46184 C 1166.4275,565.17881 1160.8871,567.3147 1155.2004,570.00155 C 1137.0122,578.59486 1125.8369,592.01245 1115.432,610.08158 C 1111.2,617.4312 1110.8311,614.90315 1102.0055,607.80485 C 1093.6264,601.06562 1078.7519,593.3295 1070.5769,591.45895 C 1066.6484,590.56005 1061.8541,592.12643 1058.9971,590.61862 C 1056.1403,589.11083 1052.0648,584.34162 1050.8665,584.34162 C 1047.2564,584.34162 1041.2912,592.65609 1041.2912,597.6878 C 1041.2912,603.58075 1045.6224,611.64365 1050.1845,614.24356 C 1053.5038,616.13527 1055.5318,613.68668 1061.6651,609.62416 C 1069.2018,604.63203 1071.4528,607.0823 1083.4208,613.05942 C 1092.7155,617.70139 1100.4997,622.60945 1105.8113,633.41958 C 1112.2897,646.60467 1113.4729,651.33294 1110.1044,652.40206 C 1108.5527,652.89457 1091.0999,653.57515 1073.1724,654.2231 L 1040.3244,657.42158 L 1036.8195,651.91102 C 1034.0498,649.33823 1031.7967,648.5418 1028.2481,648.88119 C 1024.1348,649.27465 1023.0182,650.24249 1020.5769,655.53127 L 1017.7198,661.72095 L 968.85251,662.9859 C 922.62051,662.25623 902.03881,658.86845 842.71981,652.91325 C 771.09795,645.72296 719.57295,643.81756 687.67352,647.17969 C 661.20924,649.96897 623.48466,659.05212 597.71981,668.83822 C 570.12824,679.31816 536.82381,698.3023 513.43409,716.88276 C 500.20249,727.3937 467.24766,759.81702 450.36504,778.93459 C 435.79632,795.43186 432.73305,797.16266 421.74999,795.10222 C 415.50071,793.92986 407.00552,786.05589 407.00552,781.43593 C 407.00552,770.71497 421.39188,749.42823 450.08005,717.70086 C 502.64519,659.56703 544.81281,625.6623 624.52495,577.43935 C 662.55224,554.43435 707.77766,526.1737 772.71981,484.83512 C 834.11266,445.75579 833.35238,446.18832 836.32209,448.65296 C 837.58738,449.70299 839.51809,452.29396 840.61266,454.41067 C 842.48052,458.0226 842.34295,458.49087 838.37566,462.02575 C 832.73881,467.04809 832.51452,474.27759 837.86466,478.4861 C 848.17552,486.59662 866.05538,481.46393 866.05195,470.3946 C 866.05109,468.08506 863.32524,462.50467 859.39238,456.76182 C 855.73038,451.41435 852.35481,445.5278 851.89124,443.68059 C 851.06324,440.38153 853.26452,434.31523 855.27009,434.36899 C 855.83166,434.38402 858.68766,438.49509 861.61652,443.50467 C 868.31381,454.95989 879.83895,467.65576 887.74766,472.29065 C 895.12724,476.61533 910.27195,479.99755 922.40766,480.0311 C 934.55266,480.06463 946.20395,475.92262 963.14395,465.54915 C 981.54024,454.28397 988.44709,451.35476 997.07609,451.1582 C 1003.2792,451.0169 1004.8388,451.59319 1008.8961,455.52566 C 1014.1199,460.58879 1016.6849,461.03382 1022.7041,457.9212 C 1028.9282,454.70253 1031.2912,450.34216 1031.2912,442.0757 C 1031.2912,436.04503 1030.6175,434.0575 1027.5249,430.96499 C 1022.6841,426.12413 1020.0574,426.22096 1013.4341,431.48447 C 1008.6515,435.28525 1006.9561,435.77019 998.45081,435.77019 C 986.00195,435.77019 982.12738,437.19083 964.33395,448.27922 C 941.56581,462.46776 939.04981,463.33793 922.87109,462.61917 C 900.02752,461.6043 884.27895,453.15315 877.06538,438.03852 C 874.67538,433.03056 872.76238,428.06076 872.81438,426.99452 C 872.95095,424.19603 937.20524,375.45 944.01552,372.97822 C 949.49595,370.98915 950.10824,371.07652 958.37281,375.0266 C 966.90238,379.10342 967.00552,379.22419 967.00552,385.14365 C 967.00552,392.56237 969.54738,394.98675 976.04709,393.76739 C 987.63552,391.5934 996.85738,369.67362 987.90052,365.59259 C 985.45781,364.47965 983.68666,364.4882 981.56581,365.62322 C 976.98138,368.07666 975.18781,367.58923 967.38938,361.77087 L 960.11424,356.34296 L 973.09595,345.69943 C 994.51338,328.13937 991.78795,329.06199 1008.6134,333.67649 C 1022.9121,337.59803 1031.2912,342.39867 1031.2912,346.66932 C 1031.2912,347.80986 1029.9095,350.61189 1028.2208,352.89606 C 1025.3067,356.83765 1025.2712,357.23375 1027.5264,360.67546 C 1031.7319,367.09406 1036.8609,369.2532 1046.7912,368.78546 C 1048.6377,368.69849 1052.3341,366.44162 1055.0055,363.77019 C 1061.3031,357.47257 1061.7405,350.3118 1056.0985,345.87387 C 1054.0284,344.24543 1051.2135,342.91305 1049.8434,342.91305 C 1048.3988,342.91305 1046.5734,341.03279 1045.4984,338.43753 C 1042.0428,330.09486 1037.4001,326.12817 1027.3224,322.90767 C 1022.0409,321.2199 1015.9354,319.1601 1013.7544,318.33032 L 1009.7889,316.8216 L 1015.8972,311.70542 C 1019.2568,308.89153 1027.3021,301.47629 1033.7758,295.2271 C 1045.1488,284.24833 1045.8134,283.84279 1053.4677,283.20803 C 1061.1882,282.56779 1061.5277,282.69653 1066.8407,288.28159 C 1075.0014,296.86042 1077.9799,298.09566 1082.4528,294.75623 C 1084.4668,293.25253 1087.3531,290.36362 1088.8665,288.33645 C 1092.2741,283.77232 1094.3712,273.14175 1092.5394,269.71876 C 1090.8842,266.62622 1083.6377,266.3775 1076.8228,269.17933 C 1073.5668,270.51796 1070.9078,270.74372 1068.6187,269.87582 C 1065.3365,268.63143 1065.5577,268.25017 1075.7774,257.5381 C 1081.5774,251.45859 1088.5022,243.76516 1091.1661,240.44155 L 1096.0094,234.3986 L 1102.9121,238.15562 C 1112.1532,243.18526 1116.7477,251.94355 1114.3475,259.95467 C 1112.1509,267.28603 1106.7785,274.92837 1103.3838,275.55065 C 1096.3457,276.84076 1093.5522,283.67229 1097.6629,289.54116 C 1102.7817,296.84912 1114.6954,297.30313 1122.7822,290.49843 C 1126.8941,287.0385 1127.1495,286.29395 1126.3148,280.19813 C 1125.6988,275.69905 1126.1162,271.95275 1127.6388,268.31607 C 1130.2178,262.15639 1130.5478,249.103 1128.3131,241.64412 C 1125.9149,233.63942 1119.6989,225.49297 1112.2615,220.60747 C 1108.5369,218.16082 1105.1962,215.86565 1104.8377,215.50705 C 1103.9874,214.65675 1115.8784,173.21266 1121.9771,155.77019 C 1128.1264,138.18322 1144.8439,102.0761 1162.6548,67.913046 C 1176.2964,41.747361 1176.9504,40.786946 1180.8235,41.235718 C 1186.1055,41.847718 1186.4831,42.401161 1183.7094,45.466061 C 1180.4395,49.079232 1163.8835,84.338675 1159.4184,97.198761 C 1157.3724,103.09162 1154.6678,112.09162 1153.4082,117.19876 C 1148.3917,137.54027 1148.5342,137.19876 1145.0567,137.19876 C 1137.5942,137.19876 1131.4221,151.66463 1134.3541,162.28345 C 1135.6958,167.14305 1141.5048,172.91305 1145.0554,172.91305 C 1146.5857,172.91305 1147.0055,176.31596 1147.0055,188.72125 C 1147.0055,197.41577 1147.6331,205.70206 1148.4001,207.13526 C 1149.1671,208.56846 1151.7657,220.57976 1154.1748,233.82706 C 1159.0238,260.49269 1161.2391,268.44595 1167.0502,280.0559 C 1178.5768,303.08445 1210.8657,334.72456 1235.5622,347.19135 C 1246.3719,352.64806 1291.8928,368.42142 1315.8919,375.0262 L 1335.4927,380.42055 L 1330.8994,386.81642 C 1324.1898,396.15947 1316.9515,402.1753 1309.0107,405.00847 C 1305.1578,406.3831 1300.2928,408.13627 1298.1995,408.9044 C 1290.0001,411.91312 1289.6669,425.34779 1297.6068,432.80692 C 1301.7524,436.70146 1312.2051,438.3393 1316.8952,435.8292 C 1319.7207,434.31702 1320.0115,433.20047 1319.6044,425.42637 L 1317.1841,417.78898 L 1329.3777,409.74872 C 1335.0038,405.9159 1343.7734,398.71482 1348.8657,393.74632 L 1358.1244,384.71272 L 1376.9762,388.06555 C 1392.5572,390.83675 1396.2722,391.08907 1398.3877,393.77291 C 1399.7954,395.55889 1403.6199,401.12733 1406.8867,405.0559 C 1410.4155,409.2995 1413.3744,412.67089 1413.0005,414.14606 C 1412.6544,415.51174 1412.8378,418.77957 1414.3902,420.7532 C 1418.5587,426.05242 1427.4874,425.75172 1435.3627,420.04695 C 1440.3642,416.42379 1441.2912,414.9719 1441.2912,410.76123 C 1441.2912,404.20882 1435.2009,400.47987 1429.8031,401.45686 C 1425.8839,402.16623 1417.5516,395.4622 1419.4123,393.60137 C 1419.8779,393.1359 1430.9219,394.92963 1441.4447,395.73235 C 1451.9674,396.53506 1462.6662,397.19339 1465.2198,397.19529 C 1468.3928,397.19767 1471.3806,396.89499 1471.3806,398.35948 C 1471.3806,399.77643 1469.874,402.28804 1467.1075,402.28804 C 1464.8065,402.28804 1460.4851,402.49467 1459.2504,403.72937 C 1456.4248,406.55507 1456.3442,414.34973 1459.1029,417.99715 C 1460.2567,419.52227 1462.4708,421.41668 1462.4958,421.87946 C 1462.5209,422.34223 1455.6662,423.26213 1448.7912,424.25106 C 1407.9637,430.12396 1370.0251,443.54103 1343.3512,461.5404 C 1329.5442,470.85727 1321.5062,478.7537 1309.9128,494.38972 C 1293.4227,516.62963 1287.6055,532.32163 1287.9522,553.62733 C 1288.7662,603.64182 1303.6589,641.87839 1341.0899,690.0559 C 1354.6055,707.45195 1412.0596,763.939 1414.9194,763.07786 C 1416.5743,762.57956 1424.5083,769.59071 1430.3492,779.41494 C 1438.3113,792.80697 1445.0342,805.09268 1444.7094,805.41755 C 1444.3845,805.74246 1432.7727,795.16869 1430.4728,792.7239 L 1430.4728,792.72392 z M 1090.4255,534.86826 C 1134.0468,527.40475 1171.7078,504.41333 1185.9677,476.54146 C 1189.6927,469.26026 1190.4775,465.8993 1190.9932,455.01616 C 1191.5218,443.85885 1191.1741,441.20412 1188.4149,435.33425 C 1184.5367,427.08366 1176.2561,419.71107 1168.1347,417.27783 C 1160.1465,414.8845 1141.5484,415.25513 1130.8774,418.02029 C 1126.1661,419.24112 1115.8139,423.13935 1107.8727,426.683 C 1099.9314,430.22666 1079.6127,439.23855 1062.7198,446.7094 C 1025.7217,463.07177 1019.3669,466.59179 1008.2571,476.87763 C 993.90566,490.16447 990.64324,501.53687 997.47152,514.47407 C 1008.2084,534.81677 1044.3639,542.74929 1090.4257,534.86823 L 1090.4255,534.86826 z M 1155.5117,649.42009 C 1158.2179,646.15933 1170.0501,639.12163 1176.0157,637.2244 C 1180.9839,635.64439 1181.9108,635.80189 1186.7299,639.04507 C 1189.6315,640.99775 1202.5662,640.93046 1203.7448,641.28763 C 1206.6916,642.18068 1162.805,652.62089 1156.0735,652.62089 C 1151.4991,652.62089 1154.0689,651.15866 1155.5118,649.42007 L 1155.5117,649.42009 z"
         style="opacity:1;fill:#ffdd55;fill-opacity:1;fill-rule:nonzero;stroke:#ffdd55;stroke-width:2;stroke-linecap:butt;stroke-linejoin:miter;marker:none;marker-start:none;marker-mid:none;marker-end:none;stroke-miterlimit:0;stroke-dasharray:none;stroke-dashoffset:0;stroke-opacity:1;visibility:visible;display:inline;overflow:visible;enable-background:accumulate"
         id="path2445" />
      <path
         id="path2451"
         d="M 52.832193,1048.2702 C 52.14725,1046.5023 46.957421,1033.2795 41.299293,1018.8861 C 35.641178,1004.4927 31.23535,992.54716 31.508636,992.34039 C 31.78195,992.13366 40.041236,988.11037 49.862664,983.39985 C 59.684093,978.6893 73.505521,971.09622 80.57695,966.52632 C 105.90692,950.15683 118.69969,942.60185 127.42656,938.85843 C 135.74339,935.29093 137.65075,935.05537 158.29048,935.04733 L 180.28974,935.03873 L 182.66958,926.47593 C 187.60435,908.7206 192.98029,902.56409 221.34985,882.17946 C 233.36345,873.54719 264.46134,848.52702 290.45628,826.57903 C 316.45122,804.63107 341.57695,783.81267 346.29124,780.31602 C 363.68081,767.41793 385.98636,759.85649 398.43409,762.63995 L 403.43409,763.75803 L 402.94066,775.8355 C 402.50405,786.52257 402.80639,788.36863 405.56681,791.87016 C 410.06725,797.57897 416.45296,800.43985 426.78601,801.37673 L 435.85222,802.19876 L 429.83738,811.1943 C 422.31826,822.43957 411.78919,831.01152 388.47218,844.87057 C 364.55624,859.08557 360.49158,862.25116 330.86314,889.73635 C 287.55588,929.91085 272.98736,941.2122 252.01452,950.90225 C 236.49631,958.07206 221.64538,961.5605 204.26055,962.11937 L 189.37272,962.59802 L 178.54622,974.89006 C 159.32051,996.7185 147.91681,1004.3278 99.001178,1027.9679 C 82.103721,1036.1341 65.388478,1044.7661 61.856136,1047.15 C 58.323778,1049.534 55.128607,1051.4845 54.755693,1051.4845 C 54.382793,1051.4845 53.517221,1050.038 52.832236,1048.2702 L 52.832193,1048.2702 z M 298.57805,881.27765 C 311.04704,877.07853 344.53649,847.69046 350.68936,835.54833 C 355.11538,826.81405 355.04878,825.7388 349.76886,820.68032 C 343.42501,814.60253 334.58255,814.78889 324.57396,821.21137 C 317.16116,825.96815 299.97656,845.46823 289.43421,861.08592 C 282.86966,870.81079 282.50545,878.08953 288.43409,881.07343 C 292.82091,883.2813 292.63935,883.27766 298.57806,881.27769 L 298.57805,881.27765 z"
         style="opacity:1;fill:#5fbcd3;fill-opacity:1;fill-rule:nonzero;stroke:#5fbcd3;stroke-width:2;stroke-linecap:butt;stroke-linejoin:miter;marker:none;marker-start:none;marker-mid:none;marker-end:none;stroke-miterlimit:0;stroke-dasharray:none;stroke-dashoffset:0;stroke-opacity:1;visibility:visible;display:inline;overflow:visible;enable-background:accumulate" />
      <path
         sodipodi:nodetypes="csssssssssssssssssssssssssssssssssssssssssssssssssssssssssscccsssssssssssssssssscccssssssssssssssssssssssssssssssssssssssssssssssssssssssssscccssscccsssscccsssssssssssssssssssssssssssssssssssssscccscccssssssssssssssssssssscccssssssssssssssssssscccssssssssssssssssssssssssssssssssssssssssssssssscccssssssssssscccssccssscccssssssssssssssssssssssssssssssssssssssssssssscccsssssssssssssssssssssssssscccsssssssssssssccssccssssssssccssssscccccssccssssssssssssssssscccssssssssssscccssssssssssssssssssssssssssssssssscccsssssssssssssssssssssssssssssssssssssssssssssssssssccsssssssssccssssssssssccsssssccsssssscccsccsssssssccssssssccssssssssssssssssssssssscccssssssssssssssssscccssssssssssssssssssssssssssssssssscccssssssssssssssssscccsssssssssssssssssssssssssssssssssssssccssssssssssssscccssssssssssssscccssssssssssssssssssssssssscccssssssssssssssccsssssssssccccsssccccsssccssssssssssssssccsssccssssssssssssssccssssssssssssssc"
         style="fill:#000000;display:inline"
         d="M 53.69777,1060.3644 C 53.31399,1059.9807 53,1058.4244 53,1056.9061 C 53,1051.6589 65.32773,1044.1684 100.5,1028.0447 C 146.2754,1007.0603 163.01728,995.50813 182.6267,971.37593 C 189.25573,963.21803 190.65414,961.97543 192.42937,962.66583 C 196.04591,964.07223 214.15219,963.19353 224,961.13373 C 242.06318,957.35553 259.65741,949.61133 276.02898,938.23273 C 288.12238,929.82763 313.07024,908.21283 334,888.0068 C 361.74883,861.21749 363.17175,860.12316 390.6834,844.41308 C 409.44211,833.70122 418.46716,826.84152 426.63197,817.08951 C 431.26027,811.5615 437,802.4133 437,800.56453 C 437,800.28846 433.44455,800.33676 429.099,800.67187 C 421.72592,801.24044 420.76181,801.07703 414.66992,798.2263 C 403.25733,792.88569 400.72267,786.44347 403.98525,771.0695 C 405.22307,765.23662 405.18912,764.61145 403.57028,763.42772 C 400.59771,761.25411 390.21277,760.73936 381.93654,762.35539 C 365.04128,765.65438 352.01095,773.247 328.5,793.49224 C 319.15,801.54351 305.79582,812.83146 298.82404,818.5766 C 291.85226,824.32172 280.37726,834.09233 273.32404,840.28903 C 249.32549,861.37332 238.85818,869.53758 219.5,882.27053 C 206.7852,890.63377 197.39291,898.59913 191.73411,905.81803 C 184.89262,914.54573 183.19289,918.54233 180.52095,932.18333 C 179.85899,935.56293 176.82318,936.59133 172.67628,934.84083 C 170.53012,933.93483 164.95959,933.50003 155.5,933.50003 C 143.61103,933.50003 140.36909,933.85363 134,935.84543 C 121.58082,939.72933 113.37638,944.05783 94.5,956.68463 C 69.65146,973.30643 64.868,976.12753 49.19446,983.40463 C 29.82438,992.39803 28.75645,992.72563 25.58446,990.64733 C 20.91432,987.58733 22.32747,986.26953 36.5,980.46863 C 52.59335,973.88143 66.68898,966.04783 87.28316,952.24613 C 106.38001,939.44793 120.45743,931.71193 129.5,929.04663 C 137.92877,926.56223 150.4244,925.40343 160.9918,926.12603 C 167.2992,926.55743 171.94109,926.46383 172.6307,925.89153 C 173.2616,925.36793 174.2995,922.86763 174.93714,920.33533 C 178.66983,905.51153 193.25816,890.0351 220,872.52929 C 235.20563,862.57535 243.05873,856.38911 267,835.50536 C 277.175,826.62979 287.76344,817.59541 290.52987,815.42896 C 293.2963,813.26251 305.57195,802.94221 317.80909,792.49497 C 331.46605,780.83559 343.90831,771.13533 350.02738,767.37689 C 361.20861,760.50917 374.84143,755.48175 385.14622,754.42599 C 390.9656,753.82977 402.1468,754.96789 406.3623,756.58551 C 407.2656,756.93215 412.96416,750.55332 422.80334,738.18183 C 436.02462,721.5578 445.48922,711.16777 477.92189,677.67394 C 486.81269,668.49224 510.27619,647.69437 524.5,636.38743 C 538.49217,625.26464 546.88074,619.14388 567,605.37709 C 586.93436,591.73682 593.34903,587.69825 624,569.49078 C 629.775,566.0603 641.62012,558.80898 650.32249,553.37675 C 659.02486,547.94453 671.17486,540.39292 677.32249,536.59541 C 704.51317,519.79916 718.34124,511.10076 730,503.4592 C 742.75667,495.09805 762.51442,482.45276 771.5,476.89853 C 774.25,475.19868 784.375,468.77791 794,462.63015 C 803.625,456.4824 816.34199,448.56951 822.25998,445.04597 C 832.29837,439.06917 833.09003,438.36661 834.06466,434.56976 C 836.53477,424.94703 839.51359,417.16482 842.51239,412.49999 C 845.91048,407.21404 859.29259,391.54975 868.99593,381.49998 C 875.96898,374.27799 882.48388,363.17261 888.06186,348.99998 C 896.58557,327.34279 900.22855,321.58274 917.37868,302.64595 C 945.14967,271.98186 956.29102,251.68965 959.49127,225.94449 C 960.96106,214.12041 955.74362,206.52685 938.17914,194.92644 C 926.58413,187.26856 922.44884,185.72312 907.16747,183.33684 L 896.83495,181.72335 L 892.66747,186.22721 C 887.78287,191.50609 884.09376,193.55923 875.09155,196.00891 C 855.99772,201.20472 839.5667,200.74848 801.47546,193.96481 C 773.69652,189.01766 741.14106,179.84585 726.4482,172.82747 C 719.786,169.64512 718.58448,167.82791 721.95118,166.02612 C 723.47216,165.21211 725.62185,165.67096 731.70118,168.10727 C 753.50203,176.84401 792.65543,186.07683 826.45846,190.45213 C 846.37493,193.03003 863.71476,192.15276 876.5,187.92042 C 882.81335,185.83049 884.08497,185.03596 887.78564,180.86889 C 889.90117,178.48676 889.98225,177.96232 888.87506,173.82266 C 887.63487,169.18574 887.98415,167.80089 892.06604,161.17085 C 893.41084,158.98653 893.28238,158.658 890,155.88689 C 888.075,154.26174 884.25,152.26311 881.5,151.44548 C 870.2111,148.08906 864.32742,147.7739 837,149.06175 C 798.8397,150.86012 773.68267,148.73462 752.38631,141.91279 C 744.24973,139.30641 743.06541,138.62637 742.16515,136.0439 C 740.38483,130.93686 742.59419,130.44734 752.17037,133.82702 C 772.0377,140.83873 789.25247,142.43505 835,141.50777 C 865.50174,140.88951 870.24634,141.00227 875.94002,142.48085 C 884.9433,144.81887 889.64227,147.38617 896,153.4407 L 901.5,158.67842 L 911.95115,159.91495 C 922.26693,161.13546 933.67025,164.23306 940.16616,167.57926 C 941.99977,168.5238 947.325,171.88118 952,175.04013 C 975.86518,191.16606 1003.2363,205.4858 1016.8275,208.95595 C 1028.0194,211.8135 1045.538,213.06028 1072.7009,212.93243 C 1089.122,212.85513 1096.1865,212.48015 1096.8761,211.64921 C 1097.412,211.00351 1099.2125,205.08079 1100.8772,198.4876 C 1105.089,181.80616 1117.2243,145.93365 1123.6035,131.3071 C 1132.0913,111.84613 1147.4116,80.98884 1158.1209,61.78429 C 1163.5544,52.04065 1168.0022,43.71565 1168.005,43.28429 C 1168.0077,42.85292 1169.1308,41.14999 1170.5007,39.49999 C 1172.9239,36.5813 1173.0322,36.55259 1174.4957,38.44111 C 1175.3231,39.50874 1176,40.64502 1176,40.96618 C 1176,41.28736 1171.4465,49.86386 1165.8812,60.02506 C 1153.512,82.60868 1131.8345,127.38676 1125.7122,142.99999 C 1119.8692,157.90118 1113.9804,176.40553 1108.5273,196.99998 C 1106.1244,206.07498 1103.8989,214.17498 1103.5817,214.99998 C 1103.1656,216.08236 1104.6349,217.25713 1108.8588,219.21944 C 1118.9929,223.92738 1125.3099,232.24138 1128.6454,245.26102 C 1130.7743,253.57086 1129.8756,263.73925 1126.4746,269.8244 C 1123.5659,275.02851 1123.4578,276.24281 1125.6102,279.52788 C 1131.0689,287.8589 1113.4419,298.9237 1103.2003,293.595 C 1095.5202,289.599 1093.3851,282.646 1098.4898,278.25506 C 1100.3486,276.6562 1102.1299,275.98282 1103.7044,276.28381 C 1106.4629,276.81112 1109.1379,273.7723 1113.3881,265.28322 C 1119.3865,253.30243 1113.9314,241.02512 1100.2298,235.66921 C 1097.8811,234.75114 1095.7979,233.99998 1095.6004,233.99998 C 1095.4028,233.99998 1092.0516,237.99441 1088.1531,242.87647 C 1084.2547,247.75854 1077.2254,255.23884 1072.5325,259.49936 C 1067.8396,263.75989 1064,267.54346 1064,267.90727 C 1064,269.10977 1069.7658,272.00007 1072.1543,271.99486 C 1073.4444,271.99204 1076.3,270.88108 1078.5,269.52608 C 1083.1152,266.68352 1087.5979,266.32958 1090.7775,268.55668 C 1095.7354,272.0293 1092.1435,286.15479 1084.6237,292.75726 C 1078.1975,298.39953 1074.3238,297.0146 1066.2375,286.18383 C 1063.4473,282.44673 1059.9175,281.60443 1050.8587,282.51417 C 1045.4377,283.05858 1043.702,283.62463 1043.1775,285.01916 C 1042.2332,287.53028 1018.932,309.22759 1013.4819,312.67076 C 1011.0188,314.22683 1009.0028,316.00761 1009.0018,316.62805 C 1008.9997,317.95657 1018.2613,321.43808 1025.8,322.94258 C 1028.715,323.52434 1032.3823,324.66343 1033.9496,325.47392 C 1037.6631,327.39426 1043.9303,334.75172 1044.5965,337.97317 C 1045.5135,342.40699 1046.554,343.41945 1050.328,343.55051 C 1057.0223,343.78299 1061.1747,350.13582 1059.1184,356.99925 C 1055.5902,368.77512 1040.3399,372.69959 1031.1388,364.19946 C 1025.3248,358.82846 1025.0249,356.66284 1029.5244,352.54151 C 1033.0895,349.27596 1033.1711,349.0485 1032.0237,345.57184 C 1030.5236,341.02641 1025.8731,337.45162 1019.4819,335.93114 C 1016.7419,335.27928 1010.675,333.64848 1006,332.30715 C 991.99822,328.28981 993.72798,327.9126 982,337.54092 C 976.225,342.28202 968.6875,348.41593 965.25,351.17182 C 961.8125,353.92772 959,356.31956 959,356.48702 C 959,356.65448 961.16346,358.17978 963.80768,359.87657 C 966.45191,361.57337 969.68035,364.09527 970.982,365.48082 C 973.63962,368.30973 977.20047,368.672 981,366.49998 C 989.48371,361.65025 994.11394,370.97531 988.58868,381.78322 C 985.54587,387.73525 982.61771,390.84394 978.3905,392.61018 C 973.72341,394.56022 971.40297,394.34817 968.97738,391.74998 C 967.27848,389.9302 966.93642,388.47841 967.18842,384.15718 L 967.5,378.8144 L 960,374.8102 C 953.34352,371.25636 951.90361,370.85478 947.19736,371.23963 C 943.0192,371.58131 940.74787,372.50312 936.48656,375.58662 C 924.46499,384.28548 895.86827,406.36105 886.05758,414.51588 C 880.31424,419.28983 874.59479,423.58374 873.34768,424.0579 L 871.0802,424.92 L 873.03743,430.70999 C 877.73477,444.60593 882.78614,450.88215 893.34956,455.94745 C 907.41613,462.69253 914.27246,464.26486 927.77378,463.84176 C 938.39481,463.50893 940.11262,463.18341 946,460.38796 C 949.575,458.69047 958.85011,453.01861 966.61135,447.7838 C 982.92562,436.78016 986.74133,435.45239 999.72158,436.26219 L 1008.1705,436.7893 L 1013.1186,432.39465 C 1019.4166,426.80113 1022.7708,426.57075 1027.6,431.39999 C 1030.8144,434.61437 1031,435.17941 1031,441.74994 C 1031,447.846 1030.6405,449.19616 1028.0742,452.73891 C 1024.4348,457.76296 1017.8584,460.65705 1013.6861,459.07073 C 1012.1816,458.49873 1010.0253,456.46238 1008.8943,454.54547 C 1006.4776,450.44946 1002.9666,449.4532 993.85867,450.27908 C 986.84929,450.91467 976.9708,455.50359 966.5,462.98816 C 958.18195,468.93395 943.38831,476.35756 936.75983,477.91213 C 923.91846,480.92379 912.21387,480.22235 896.26196,475.48513 C 889.29593,473.41646 879.44772,466.5478 874.50537,460.31097 C 872.30242,457.53103 868.75121,453.06131 866.61379,450.37826 C 864.47638,447.69521 861.39647,442.68749 859.76954,439.24999 C 858.14261,435.81249 856.48809,432.99999 856.09283,432.99999 C 855.69758,432.99999 854.13298,434.29552 852.61596,435.87895 C 849.99007,438.61979 849.91415,438.96765 851.03369,443.12896 C 852.65871,449.16913 853.9632,451.45033 860.3954,459.49999 C 864.96837,465.22289 865.98987,467.19244 865.99443,470.29543 C 866.01198,482.24747 843.48282,486.50865 835.98031,475.97233 C 832.03666,470.43399 833.89929,464.62214 840.75,461.08976 C 841.9875,460.45169 843,459.22558 843,458.36509 C 843,455.82387 836.63469,446.05919 834.95804,446.02835 C 832.85826,445.98972 818.91831,454.07775 804.4548,463.72646 C 797.87966,468.11279 782.375,477.99458 770,485.686 C 757.625,493.37741 740.3,504.38813 731.5,510.15427 C 722.7,515.92041 708.3,525.05046 699.5,530.44328 C 683.1088,540.48813 650.44063,560.77634 641.5,566.46356 C 638.75,568.21286 629.3,573.84702 620.5,578.98391 C 581.25775,601.89113 544.74696,627.47551 512,655.01365 C 492.34656,671.54095 448.06302,716.85923 432.86281,735.99999 C 412.97301,761.04606 409.34347,766.47756 407.51756,773.92832 C 405.54682,781.97009 405.90833,784.54916 409.6255,788.96676 C 413.71153,793.82273 419.53798,796.40423 426.5,796.44323 C 435.79755,796.49532 437.79319,795.15781 449.32462,781.14572 C 462.20635,765.49287 494.05619,733.38542 508.04916,721.94622 C 557.69954,681.35723 609.20788,659.38201 680.5,648.37279 C 694.25149,646.24923 745.15557,645.39312 767.41678,646.91102 C 790.66952,648.49653 825.00547,651.59287 851.5,654.49347 C 872.60136,656.80363 893.20293,658.52807 931,661.14792 C 940.625,661.81506 964.23326,662.39219 983.46281,662.43045 L 1018.4256,662.49999 L 1019.7198,657.93105 C 1021.5912,651.32432 1024.1264,648.99999 1029.461,648.99999 C 1033.3623,648.99999 1034.2339,649.45528 1037.3888,653.1411 L 1040.9334,657.28222 L 1046.7214,655.6582 C 1051.4528,654.33062 1055.429,654.14435 1068.5047,654.63769 C 1084.9151,655.25686 1109.645,653.75502 1111.3652,652.03479 C 1113.6645,649.73549 1103.4162,628.19514 1096.6854,621.18006 C 1090.2396,614.46207 1074.9073,606.99999 1067.5495,606.99999 C 1065.1876,606.99999 1063.4752,607.9887 1060.6217,610.99999 C 1055.4772,616.42906 1052.0561,616.43566 1046.9104,611.02647 C 1040.6397,604.43456 1040.1822,592.97755 1045.981,587.74999 C 1049.8553,584.2574 1052.7038,584.2784 1057.6146,587.83579 C 1060.4528,589.89177 1063.1753,590.83713 1067.5147,591.27352 C 1076.1272,592.13967 1093.1641,600.89905 1102.8804,609.45657 C 1106.9397,613.0317 1110.6622,615.70873 1111.1528,615.40555 C 1111.6434,615.10236 1113.4377,612.07457 1115.1403,608.67713 C 1123.3235,592.34752 1134.7297,580.87289 1151,572.60246 C 1156.775,569.66693 1162.732,566.97328 1164.2378,566.61657 C 1166.0829,566.17949 1167.6227,564.69966 1168.9599,562.07852 C 1174.6099,551.00377 1186.9828,550.13593 1191.9824,560.46372 C 1194.2794,565.2085 1194.697,574.37621 1192.8053,578.52793 C 1190.2212,584.19934 1181.2884,585.79646 1176.1824,581.49999 C 1172.6814,578.55413 1168.7912,578.3142 1162.7702,580.67273 C 1151.8453,584.9523 1136.7236,597.75482 1130.5077,607.98729 C 1126.6966,614.26104 1122,627.3957 1122,631.78016 C 1122,633.39031 1124.2842,639.32067 1127.076,644.95874 L 1132.1521,655.20979 L 1139.2225,647.53651 C 1150.7848,634.98842 1170.605,623.06932 1180,623.01451 C 1181.6479,623.0049 1183.4518,621.80702 1185.2926,619.49996 C 1187.5298,616.69619 1188.7829,615.99999 1191.5923,615.99999 C 1199.4419,615.99999 1205,622.07118 1205,630.64552 C 1205,636.42946 1203.0794,639.65102 1198.4874,641.56969 C 1194.1505,643.38177 1189.4829,642.00283 1186.055,637.89678 C 1183.4253,634.7468 1183.4172,634.74478 1178.0603,635.89363 C 1170.8388,637.44237 1162.1828,642.20371 1156.3255,647.84909 C 1151.8279,652.18393 1151.6582,652.52241 1153.8287,652.82986 C 1158.3353,653.46822 1181.8041,648.90112 1191.5959,645.48023 C 1199.709,642.64586 1202.9467,642.02048 1209.5,642.02194 C 1218.2114,642.02389 1227.2,643.96599 1229.9293,646.436 C 1231.9911,648.30193 1242.0537,648.57442 1246.8719,646.8948 C 1250.5428,645.61513 1252.2875,643.06728 1250.9455,640.9461 C 1249.0443,637.94097 1249.9334,634.23382 1253.2183,631.46978 C 1256.1447,629.00732 1256.9746,628.81059 1262.3714,629.29995 C 1269.1467,629.91431 1272.6459,632.01723 1275.3024,637.07106 C 1277.2585,640.79246 1277.0923,646.97893 1274.9675,649.53921 C 1274.2465,650.4079 1272.0034,650.99999 1269.4333,650.99999 C 1266.2467,650.99999 1264.3746,651.65375 1262.3058,653.48896 L 1259.5,655.97795 L 1262,657.95065 C 1263.375,659.03565 1266.0641,660.7281 1267.9759,661.71168 C 1269.8876,662.69525 1276.6224,666.5483 1282.9421,670.274 C 1289.2618,673.99972 1295.0101,676.82635 1295.7162,676.5554 C 1296.4223,676.28444 1297,674.95293 1297,673.59647 C 1297,663.3061 1305.2378,662.92272 1315.239,672.74762 C 1323.2095,680.57771 1323.7058,687.55363 1316.5064,690.56177 C 1314.5779,691.36756 1313,692.22054 1313,692.45731 C 1313,692.69407 1316.3261,695.3911 1320.3914,698.45072 C 1324.4567,701.51035 1332.9293,708.6231 1339.2195,714.25683 C 1371.7078,743.35482 1406.4528,773.25915 1420.5955,784.29559 C 1423.9481,786.91178 1429.2377,791.93501 1432.3502,795.45832 C 1435.4867,799.00884 1440.0131,802.86507 1442.5047,804.10942 C 1447.1942,806.45149 1447.9787,807.94285 1445.5718,809.94037 C 1443.4125,811.73243 1440.5256,809.87347 1420.1829,793.59182 C 1402.4117,779.36829 1394.814,772.82527 1347,730.56724 C 1311.5705,699.25463 1302.9728,693.04979 1295,693.03932 C 1293.075,693.03679 1288.35,693.72457 1284.5,694.56773 C 1258.6509,700.22874 1248.2673,701.32133 1228.5,700.46015 C 1196.1171,699.04937 1197.6465,698.92451 1188,703.76649 C 1181.8306,706.86315 1176.621,710.63801 1169,717.53362 C 1146.2157,738.14934 1128.9451,750.87437 1115.3292,757.07861 C 1088.7635,769.18348 1082.195,771.65609 1073,773.01273 C 1062.2297,774.60181 1061.0038,775.24177 1060.9852,779.28516 C 1060.96,784.77965 1058.0871,795.05669 1054.9101,801.01722 C 1050.6138,809.0779 1036.6352,827.40505 1022,844.16502 C 1002.8344,866.11318 1001.3762,867.21979 996.44113,863.56075 C 994.57892,862.18005 994.70565,861.90561 999.55811,856.81075 C 1015.9162,839.63557 1036.1916,814.93931 1044.8664,801.62348 C 1050.9712,792.2526 1053,786.04614 1053,776.74157 C 1053,770.54597 1052.7209,769.56982 1050.25,767.12354 C 1048.7375,765.62611 1044.9267,763.59831 1041.7816,762.61733 C 1030.1999,759.00494 1015.3315,764.00585 1002.9629,775.6738 C 994.91284,783.26782 987.36453,794.64052 976.52941,815.49999 C 968.27824,831.38489 958.32768,847.99999 957.06558,847.99999 C 955.55796,847.99999 953,844.28876 953,842.10142 C 953,840.86882 954.32044,837.94113 955.93432,835.59545 C 957.5482,833.24975 963.77534,822.14369 969.77241,810.91528 C 988.49919,775.85285 996.88765,766.0252 1015.5465,757.28783 C 1021.0446,754.71323 1022.4943,754.49115 1034.5,754.38457 C 1041.65,754.3211 1048.6704,753.79525 1050.101,753.216 C 1053.619,751.79148 1076.0749,747.29815 1083.4381,746.54538 C 1092.3444,745.63485 1101.9745,741.86675 1111.3668,735.6173 C 1129.4863,723.56105 1135.4415,712.18224 1129.9577,700.09536 C 1126.4945,692.46209 1120.7004,689.51647 1107.4326,688.64399 C 1096.3452,687.91489 1088.1751,685.46833 1072.5177,678.18869 C 1056.9844,670.96675 1052.3415,670.46105 1042.2468,674.89169 C 1038.3517,676.60125 1033.8902,677.9901 1032.3324,677.97802 C 1027.901,677.94366 1021.1491,674.42136 1019.7879,671.43382 L 1018.5737,668.7689 L 996.03684,669.22783 C 983.64158,669.48023 964.05,669.30602 952.5,668.8407 C 929.28239,667.90533 868.75055,663.53861 857,661.9514 C 842.56095,660.00106 800.29966,656.04119 778,654.54912 C 723.79077,650.92201 694.52041,652.03531 660.30737,659.02557 C 621.04634,667.04721 597.81198,674.99826 566,691.29859 C 539.35114,704.95336 514.11411,724.14762 485.43253,752.57495 C 460.04676,777.73568 449.34198,790.99768 443.92341,803.99999 C 440.14481,813.06706 435.2554,819.91284 426.11032,828.94055 C 417.54537,837.39556 411.64086,841.44352 391,853.01119 C 373.02412,863.08532 364.09003,869.95672 345.50812,887.99999 C 298.81393,933.34063 273.78648,952.14583 246.27032,962.56563 C 236.36336,966.31723 217.34392,970.00133 204.26404,970.70233 L 192.83398,971.31483 L 187.56792,977.90743 C 170.94421,998.71863 148.86077,1014.2833 112.5,1030.8163 C 88.24095,1041.8467 72.52332,1049.7754 64.55833,1055.0003 C 55.57338,1060.8942 54.67252,1061.3392 53.69777,1060.3644 z M 1069,767.09894 C 1076.5255,765.75548 1082.4745,763.88871 1090,760.50915 C 1095.775,757.91571 1103.9905,754.30363 1108.2567,752.4823 C 1122.4376,746.42816 1140.1652,733.8518 1159.8626,715.87185 C 1174.6088,702.41142 1179.7799,698.7568 1189.5,694.92637 L 1197.5,691.77375 L 1218.2738,693.02019 C 1242.1575,694.45323 1253.3705,693.71604 1281.5,688.86342 C 1302.4788,685.24437 1307,683.37942 1307,678.345 C 1307,677.05525 1307.5075,675.99999 1308.1278,675.99999 C 1308.8756,675.99999 1309.0488,677.29337 1308.6418,679.83879 C 1308.1275,683.05457 1308.4176,684.04366 1310.4289,685.93317 C 1314.9438,690.17467 1319.5968,685.95246 1316.6368,680.29997 C 1314.6282,676.46406 1309.1185,671.35594 1305.5297,670.00233 C 1303.0264,669.0581 1302.3583,669.1571 1301.2797,670.63212 C 1300.5759,671.59469 1300,673.59113 1300,675.06866 C 1300,678.64002 1298.8252,679.45765 1289.4565,682.40649 C 1267.3241,689.37274 1228.1566,691.90837 1212.8583,687.36526 C 1207.4899,685.77102 1202,681.32913 1202,678.57978 C 1202,675.06786 1209.3248,668.91779 1219.3964,663.97329 C 1228.5493,659.47983 1230.7669,658.8333 1242.9633,657.10228 C 1254.6834,655.43885 1256.6605,654.88774 1258.2336,652.84571 C 1259.2275,651.55556 1261.044,649.37499 1262.2703,647.99999 C 1263.4966,646.62499 1264.7668,644.37499 1265.0929,642.99999 C 1265.6441,640.67596 1265.7371,640.64076 1266.4151,642.49999 C 1267.8485,646.43139 1268.7449,647.49999 1270.609,647.49999 C 1273.508,647.49999 1273.7727,640.2521 1271.0024,636.73022 C 1267.4562,632.22194 1257.9109,630.9926 1254.8731,634.65293 C 1253.974,635.73625 1254.0057,636.98727 1255.0093,640.02831 C 1256.1884,643.60098 1256.1303,644.19851 1254.4199,646.08851 C 1251.542,649.2685 1250.2438,649.73657 1236.6907,652.48075 C 1229.7852,653.87897 1221.2923,656.30853 1217.8176,657.87979 C 1209.1461,661.80102 1200.1365,668.69367 1194.892,675.41849 C 1188.2387,683.94972 1159.0912,703.99999 1153.3425,703.99999 C 1152.2615,703.99999 1150.4318,703.11932 1149.2765,702.04295 C 1147.2085,700.11633 1143,690.33136 1143,687.44982 C 1143,686.63849 1142.1,682.72691 1141,678.75742 C 1139.9,674.78795 1139,669.40248 1139,666.78971 C 1139,662.3124 1139.3971,661.60369 1145.9052,654.46415 C 1158.9227,640.18384 1168.985,633.60687 1179.7514,632.34149 C 1185.0823,631.71495 1185.2887,631.78545 1188.5542,635.34995 C 1192.5484,639.70989 1196.005,640.08586 1199.5455,636.54543 C 1202.398,633.69285 1202.7497,629.35042 1200.4831,624.96726 C 1198.0148,620.19418 1190.9484,617.45158 1188.2,620.19999 C 1186.6021,621.79794 1186.6815,622.99999 1188.385,622.99999 C 1189.1467,622.99999 1190.5386,624.1731 1191.4781,625.60689 C 1193.6587,628.93492 1192.0945,630.86687 1189.5214,628.02362 C 1181.7231,619.40663 1146.7161,638.24686 1135.4793,657.10822 C 1133.3218,660.72977 1131.2307,661.4386 1129.8986,658.99999 C 1129.4479,658.17499 1126.7534,652.38846 1123.9109,646.14106 C 1119.2384,635.87173 1118.7953,634.28896 1119.2912,629.64106 C 1119.9708,623.27037 1124.4305,612.20337 1129.2341,604.96692 C 1138.4327,591.10959 1154.8047,578.70227 1167.8763,575.68244 L 1174.1028,574.24397 L 1178.2239,577.68709 C 1181.4298,580.3655 1182.9175,580.99253 1184.9225,580.51036 C 1188.3236,579.69245 1189.6557,577.79642 1190.4064,572.70489 C 1191.6696,564.13651 1187.4171,556.99999 1181.0482,556.99999 C 1175.1432,556.99999 1169.4405,562.41593 1172.0432,565.55208 C 1172.9646,566.66223 1172.9247,567.0683 1171.8626,567.39339 C 1171.1132,567.62278 1168.025,568.56983 1165,569.49796 C 1161.975,570.42609 1155.4934,573.24995 1150.5965,575.77323 C 1135.8348,583.37962 1121.3325,599.41088 1115.9894,614.02887 C 1114.2037,618.91452 1112.6799,620.94465 1110.7685,620.98467 C 1110.3662,620.9931 1107.2162,618.18745 1103.7685,614.7499 C 1100.3208,611.31235 1094.8598,606.75328 1091.6328,604.61864 C 1085.6621,600.66902 1070.829,594.05152 1067.8721,594.01829 C 1065.6254,593.99302 1058.8712,596.86925 1056.75,598.75455 C 1054.5638,600.69766 1054.4411,599.275 1056.5901,596.90039 C 1058.5964,594.68347 1057.6797,591.49146 1054.4242,589.35833 C 1052.2075,587.90595 1051.7902,587.90742 1049.5496,589.37551 C 1044.4966,592.68636 1044.338,603.43424 1049.2637,608.74999 C 1052.299,612.0256 1055.0799,611.53073 1059.5471,606.92007 C 1063.3305,603.01507 1063.7002,602.86604 1068.1704,603.44396 C 1070.7391,603.77603 1075.9358,605.32403 1079.7186,606.88395 C 1097.6836,614.29212 1104.476,621.93315 1113.5386,644.92967 C 1115.5825,650.11602 1118.7003,656.64102 1120.4671,659.42967 C 1124.1801,665.29015 1125.7942,669.70147 1125.2098,672.39142 C 1124.8344,674.11957 1124.0953,674.2315 1116.6494,673.68803 C 1104.2425,672.78246 1087.1165,667.83373 1072.1116,660.81838 C 1068.5909,659.17235 1063.4131,657.59604 1060.6052,657.31546 C 1054.1292,656.66838 1042.2989,659.37056 1039.3085,662.17991 L 1037.069,664.28377 L 1036.3824,659.98974 C 1035.4973,654.45459 1032.8727,651.78545 1028.7138,652.19102 C 1024.4591,652.60594 1022.7479,655.94069 1023.424,662.49999 C 1023.809,666.23527 1024.5935,668.06911 1026.5254,669.74999 C 1029.9592,672.73753 1032.3975,672.5928 1041.1128,668.88409 C 1047.691,666.08482 1049.2005,665.81496 1055.9675,666.22829 C 1062.3588,666.61867 1065.1751,667.45801 1074.556,671.76822 C 1090.5132,679.09992 1096.6678,680.92204 1108.7658,681.89626 C 1122.105,682.97043 1125.7248,684.44563 1130.8114,690.88058 C 1136.5039,698.08216 1138.4028,703.62166 1137.7283,711.05924 C 1136.7101,722.28857 1129.5817,730.61544 1111,742.2814 C 1101.2774,748.38545 1096.1882,750.44237 1087,751.98159 C 1060.4612,756.42741 1051.0631,758.67198 1050.2636,760.75537 C 1049.7067,762.20662 1055.6428,769.00945 1057.4462,768.98669 C 1058.0258,768.97937 1063.225,768.12989 1069,767.09894 z M 1179.25,566.28702 C 1175.7514,565.62442 1176.6034,563.83502 1180.25,564.18663 C 1182.0375,564.35897 1183.4213,564.93873 1183.325,565.47499 C 1183.1121,566.66137 1182.1933,566.84446 1179.25,566.28702 z M 1160.8375,693.311 C 1171.6385,687.33052 1181.8673,679.37423 1192.0003,669.07163 C 1199.5916,661.35313 1203.1079,658.60125 1209.5003,655.37598 C 1213.9001,653.15603 1217.3786,650.92577 1217.2303,650.41985 C 1217.082,649.91393 1213.482,649.54137 1209.2303,649.59194 C 1203.1703,649.66402 1199.066,650.48614 1190.2354,653.39674 C 1178.7749,657.17417 1174.1137,658.1671 1159,660.05051 C 1143.0819,662.03415 1142.8064,663.06927 1150.163,693.24999 C 1150.73,695.57593 1151.6653,696.99999 1152.6261,696.99999 C 1153.478,696.99999 1157.1731,695.33995 1160.8375,693.311 z M 1259.7307,681.01006 C 1270.7759,680.01402 1278,678.44618 1278,677.04509 C 1278,676.5623 1272.7125,673.34966 1266.25,669.90592 C 1255.4628,664.15763 1254.034,663.65952 1248.8131,663.82703 C 1235.1418,664.26567 1216.7175,670.23473 1211.608,675.88064 C 1209.8996,677.76846 1209.9193,677.88641 1212.1423,679.07615 C 1217.1879,681.77646 1240.6561,682.73016 1259.7307,681.01006 z M 1118.4477,667.08465 C 1118.7588,666.58122 1117.8294,664.7623 1116.3824,663.04258 L 1113.7514,659.91583 L 1105.1257,660.57961 C 1100.3816,660.9447 1096.0892,661.62192 1095.5872,662.08453 C 1094.3116,663.2599 1099.1085,664.96653 1108,666.5008 C 1117.6262,668.16182 1117.7767,668.17024 1118.4477,667.08465 z M 857.03811,476.74999 C 860.76749,474.86936 861.55133,473.96799 861.81265,471.25945 C 862.06597,468.6339 861.23046,466.92591 857.41005,462.25945 C 851.252,454.73766 848.00151,447.50334 846.92392,438.92137 C 846.11607,432.48765 846.28155,431.32641 849.12673,423.4634 C 854.01151,409.96362 857.50731,410.03898 858.94611,423.67502 C 860.33967,436.88226 866.03816,446.86893 880.60082,461.6252 C 887.77545,468.89521 891.87566,471.17517 902.5867,473.85066 C 914.31195,476.7795 919.62595,477.23462 928.74589,476.09107 C 941.82477,474.45112 958.2902,466.4862 972.82352,454.76913 C 978.88299,449.88386 981.22974,448.63824 986.41986,447.55232 C 993.43463,446.08463 1009.4587,446.30586 1011.3757,447.89686 C 1013.2039,449.41412 1020.0134,447.06686 1021.0863,444.54956 C 1021.7795,442.92315 1021.9124,443.22261 1021.7299,445.99999 C 1021.5119,449.31851 1021.2926,449.51642 1017.5,449.81682 C 1012.3059,450.22823 1011.1596,451.41388 1013.4786,453.97635 C 1015.6695,456.39722 1017.1404,456.49588 1021.0327,454.48306 C 1026.5739,451.61762 1029.3203,442.58451 1026.474,436.58637 C 1023.8002,430.95193 1020.7881,430.81007 1015.4323,436.06639 L 1011.0266,440.39025 L 1000.1385,440.15163 C 986.46124,439.85187 983.64278,440.85529 967.25194,451.85989 C 960.51551,456.38264 952.30622,461.35887 949.00907,462.91817 C 941.81069,466.32248 929.17962,468.46529 920.68783,467.72277 C 911.15361,466.88909 895.75751,461.39458 887.52297,455.88697 C 881.22855,451.67701 879.82246,450.12565 875.66633,442.80528 C 873.0729,438.23737 870.26138,432.02499 869.41851,428.99999 C 868.57563,425.97499 867.1624,421.79937 866.27799,419.72084 C 863.05237,412.14005 867.79735,401.0405 880.09721,387.3947 C 889.90912,376.5091 897.23604,365.20103 901.60215,354.20485 C 905.89272,343.39892 907.10877,342.92981 911.17376,350.51247 C 914.70513,357.09971 924.15024,365.6937 929.41978,367.1143 C 931.73827,367.73934 937.60185,368.01008 943,367.74137 L 952.5,367.26845 L 962.75,371.79936 C 973.71964,376.64836 974.35839,377.44049 971.62039,382.79964 C 969.86179,386.24177 971.11293,389.99998 974.01744,389.99998 C 978.33801,389.99998 981.79333,387.10118 984.91206,380.86005 C 988.35946,373.9612 988.68127,371.81027 986.53279,370.0272 C 985.3677,369.06025 984.15239,369.15827 980.6307,370.50321 C 975.1698,372.58876 973.41746,372.0705 966.78366,366.408 C 959.80225,360.44877 955.88393,359.343 947.2294,360.88965 C 936.35117,362.8337 928.63685,360.92241 923.70505,355.0613 C 919.75327,350.36487 918.73301,345.85589 919.16854,335.01244 C 919.54623,325.60889 919.71039,325.00949 923.45311,319.36712 C 925.59362,316.14019 931.88035,308.09998 937.42362,301.49998 C 942.96688,294.89998 949.12972,287.24998 951.1188,284.49998 C 960.04874,272.15394 969.98485,251.01196 973.5471,236.77721 C 975.32938,229.65517 976.7728,227.59183 979.29555,228.5599 C 984.63301,230.60808 988.20036,260.3152 986.31326,286.99998 C 985.06729,304.61883 986.10429,311.08759 991.46853,319.1583 C 995.41632,325.0979 996.51166,326.04772 1001.6158,327.95744 C 1004.7629,329.13489 1010.592,330.7209 1014.5695,331.48192 C 1025.2155,333.51885 1031.6974,337.11946 1034.051,342.30382 C 1036.914,348.60999 1036.6019,352.02003 1032.8818,355.07805 C 1030.2112,357.27333 1029.9078,357.95923 1030.8382,359.69769 C 1033.3609,364.41128 1043.2897,366.45287 1049.0939,363.45143 C 1052.4308,361.72588 1055.9905,356.57942 1055.9963,353.4725 C 1056.0067,347.83534 1049.5542,344.66013 1048.4316,349.74998 C 1048.098,351.26248 1047.4499,353.62498 1046.9915,354.99998 C 1046.2967,357.08374 1046.1448,356.7295 1046.0789,352.87242 C 1046.0322,350.12969 1045.408,347.75358 1044.5466,347.03866 C 1043.7472,346.37525 1042.4079,343.4752 1041.5704,340.5941 C 1039.176,332.35771 1034.7594,328.52244 1025.2731,326.44181 C 1010.0663,323.10651 1001.1823,317.29128 997.21049,308.07272 C 994.8976,302.70454 994.93355,286.84306 997.26445,284.26336 C 1000.3249,280.87628 1006.299,279.49467 1012.0971,280.83304 C 1018.7212,282.36206 1026.2421,282.2637 1038.5,280.48772 C 1044,279.69085 1051.8706,279.03012 1055.9903,279.01942 L 1063.4805,278.99998 L 1069.6079,285.49998 C 1073.2129,289.3242 1076.5652,291.99998 1077.7513,291.99998 C 1082.4198,291.99998 1089.7179,280.13132 1088.8466,273.95603 C 1088.5436,271.80884 1088.0176,271.51528 1084.664,271.62167 C 1079.2256,271.7942 1077.2049,274.05511 1078.7739,278.21183 C 1079.5736,280.33049 1079.6474,281.75258 1078.9917,282.40824 C 1078.3361,283.0639 1078,282.67864 1078,281.27142 C 1078,278.52558 1075.4536,276.00114 1072.6786,275.9958 C 1071.4804,275.9935 1068.2862,274.8685 1065.5805,273.4958 C 1060.3968,270.86592 1055.7678,270.45646 1048.0524,271.94539 C 1045.1758,272.50052 1040.0222,272.33346 1033.4625,271.47244 C 1027.5565,270.6972 1019.3899,270.36878 1013.9101,270.68612 C 1004.8231,271.21237 1004.4204,271.14514 1002.1814,268.72806 C 1000.2968,266.69356 999.76461,264.75325 999.33828,258.3625 C 999.0498,254.03813 997.90797,247.15131 996.8009,243.0585 C 994.77342,235.56298 994.8081,228.79188 996.8846,226.71538 C 998.37751,225.22247 1005.3704,225.69889 1017.2097,228.10014 C 1028.9199,230.47518 1046.8846,230.77408 1074.8283,229.0588 C 1088.1821,228.23909 1091.5522,228.30432 1093.3283,229.41679 C 1094.5227,230.16495 1097.3,231.34228 1099.5,232.0331 C 1107.609,234.57935 1115.0225,241.52568 1117.9441,249.31508 C 1120.579,256.33982 1117.9091,266.72991 1111.0871,275.99998 C 1107.7587,280.52278 1107.3415,280.78793 1104.4296,280.23128 C 1099.0134,279.19591 1097.046,285.31781 1101.6349,288.9274 C 1104.777,291.399 1112.6502,291.74936 1116.802,289.60236 C 1122.848,286.47588 1125.1476,280.403 1120.2188,280.57939 C 1117.2512,280.68558 1117.3902,279.7124 1121.5911,270.97178 C 1127.5228,258.63018 1127.7554,249.29047 1122.4311,237.24556 C 1118.0386,227.30869 1112.1323,222.94634 1098.5,219.57021 C 1092.4432,218.07021 1089.344,217.9564 1075.5,218.72563 C 1056.7011,219.77018 1030.3087,218.10332 1017.5862,215.06798 C 1003.1003,211.61191 978.77903,198.99602 949.90395,179.95995 C 937.42069,171.73029 927.78183,167.67508 916.67306,165.97922 C 908.66146,164.75618 897.0346,164.9243 895.25,166.28898 C 893.84379,167.36432 893.60448,171.82832 894.84796,173.78822 C 895.31802,174.5291 901.9026,176.11646 910.34483,177.52412 C 926.49755,180.2174 928.64385,181.0738 943.14572,190.61196 C 953.45335,197.3915 959.6531,203.58621 962.95322,210.40336 C 968.43291,221.72288 962.38701,250.97216 950.73778,269.49998 C 945.45131,277.908 933.10183,293.68383 924.24987,303.33693 C 914.24211,314.25045 904.73647,326.68905 901.3881,333.25269 C 900.05461,335.86668 896.92262,343.29168 894.42814,349.75269 C 889.28256,363.08038 882.20596,376.29634 877.91476,380.5924 C 872.05118,386.46262 854.25404,406.69419 849.12843,413.31633 C 843.69864,420.33149 841.80666,425.14808 840.02463,436.4927 C 839.12026,442.25005 839.21668,442.7281 842.47961,448.66428 C 846.83773,456.59289 848.99737,463.79812 847.90051,466.74999 C 847.44068,467.98749 846.83025,468.99999 846.54401,468.99999 C 846.25777,468.99999 846.13077,467.98749 846.26179,466.74999 C 846.46353,464.84443 846.06042,464.53136 843.62859,464.70488 C 840.53313,464.92574 837,467.52333 837,469.57825 C 837,471.38935 841.95403,477.03417 844.41844,478.03113 C 848.07058,479.50859 852.44913,479.06407 857.03811,476.74999 z M 883.55134,406.7316 C 888.52958,402.75421 900.11153,393.87498 909.28901,386.99998 C 918.46649,380.12498 925.98089,374.00268 925.98767,373.39487 C 925.99445,372.78706 923.3386,370.4229 920.08579,368.14118 C 916.83297,365.85945 913.03702,362.64425 911.65035,360.9963 C 910.26367,359.34832 908.76257,358.01531 908.31456,358.03404 C 907.86655,358.05279 905.7739,361.63666 903.66423,365.99821 C 899.6287,374.34131 894.25163,381.89796 884.0949,393.49998 C 880.7245,397.34998 876.84935,402.72583 875.48345,405.44632 C 873.03508,410.3228 872.28471,414.01753 873.75,413.9816 C 874.1625,413.97149 878.5731,410.70899 883.55134,406.7316 z M 948.99996,354.5 C 950.59531,353.67501 952.26046,352.40598 952.7003,351.67992 C 953.14013,350.95387 955.83695,348.59137 958.69322,346.4299 C 966.57802,340.46316 982.39278,327.43656 983.77765,325.76791 C 984.77385,324.56756 984.39307,323.10425 981.75225,317.98452 C 978.11399,310.93103 978.34076,314.97628 979.04658,269.71972 C 979.37924,248.39059 978.60712,245.5423 974.9724,254.69033 C 967.77305,272.81 960.33582,284.81268 944.98281,303.08944 C 938.78692,310.46524 932.09361,318.93596 930.10878,321.91327 C 926.59114,327.18985 926.5,327.56868 926.5,336.91327 C 926.5,347.97597 927.94765,351.7396 933.19809,354.32717 C 937.35584,356.37622 945.20571,356.46208 948.99996,354.5 z M 1010.3198,305.11176 C 1016.6871,300.71241 1028.0776,289.93454 1027.4437,288.90889 C 1027.1347,288.40899 1024.3181,287.99998 1021.1844,287.99998 C 1018.0507,287.99998 1014.0147,287.57779 1012.2154,287.06176 C 1004.5341,284.85877 1000.1321,289.95042 1002.0254,298.84821 C 1003.8627,307.48248 1004.0359,307.99998 1005.0889,307.99998 C 1005.6668,307.99998 1008.0207,306.70028 1010.3198,305.11176 z M 1054.4368,263.9133 C 1057.4481,263.0639 1061.2686,259.90785 1070.6868,250.48963 C 1077.4591,243.71738 1083,237.408 1083,236.46876 C 1083,234.92685 1082.005,234.82487 1072.75,235.4182 C 1042.7313,237.34266 1027.1774,236.82726 1012.5,233.42171 C 1003.3982,231.30983 1001.998,231.48714 1002.0108,234.74998 C 1002.0168,236.26248 1002.7369,239.74998 1003.6111,242.49998 C 1004.4853,245.24998 1005.4929,251.31821 1005.8503,255.98492 L 1006.5,264.46985 L 1018,264.22808 C 1024.325,264.0951 1031.075,264.42189 1033,264.95427 C 1037.0772,266.08188 1048.7602,265.51455 1054.4368,263.9133 z M 288.5,880.84526 C 283.34664,878.02659 282.69866,873.47036 286.41957,866.21675 C 288.57375,862.01735 302.04686,844.8216 314.5877,830.26572 C 319.31697,824.77656 330.26614,817.64147 335.66632,816.52971 C 340.37332,815.56064 346.01819,817.52253 350.32487,821.62432 C 353.46733,824.61727 354.03685,825.73402 353.51696,827.8836 C 352.61629,831.60759 349.34487,837.73657 345.33409,843.21414 C 341.51716,848.42696 317.54776,869.51623 308.30996,875.78949 C 300.0383,881.40668 292.87082,883.2359 288.5,880.84526 z M 304.50705,873.9462 C 316.44049,867.23715 340.78854,844.60868 346.14211,835.25161 C 348.87667,830.4721 349.04599,829.66937 347.99274,826.47799 C 345.6248,819.30305 338.00194,818.14908 328.40958,823.51343 C 321.27794,827.50167 317.98823,830.54169 311.29375,839.33013 C 308.70886,842.72356 303.15473,849.77498 298.95122,854.99999 C 287.61399,869.0923 285.8651,873.39123 290.22653,876.44609 C 293.12822,878.47852 297.94529,877.63527 304.50705,873.9462 z M 1380.4401,732.22742 C 1347.9004,698.91445 1338.5884,687.7971 1322.6405,663.22251 C 1305.624,637.00122 1297.6693,618.91309 1292.8577,595.49999 C 1289.8149,580.69334 1287.425,553.70646 1288.2889,543.90695 C 1288.888,537.10955 1295.0493,518.69145 1299.2747,511.06656 C 1304.6685,501.3332 1321.7423,479.43301 1328.7449,473.2657 C 1356.336,448.96586 1402.5911,430.52197 1450.9063,424.55476 C 1457.1011,423.78967 1462.4362,422.89716 1462.7619,422.5714 C 1463.0877,422.24564 1462.0855,420.65486 1460.5348,419.03631 C 1458.4616,416.87236 1457.5911,414.80026 1457.2459,411.20727 C 1456.8182,406.75635 1457.0313,406.12051 1459.6379,404.07019 C 1461.7651,402.39691 1463.3376,401.95536 1465.7661,402.34945 C 1468.4712,402.78844 1469.3172,402.44546 1470.6873,400.35443 C 1473.1428,396.60683 1471.3798,396.03299 1457.356,396.01529 C 1446.0189,396.001 1428.0417,394.68088 1421.75,393.40064 C 1417.8754,392.61225 1418.2398,394.53272 1422.75,398.6712 C 1426.24,401.87357 1426.8269,402.06742 1431.2152,401.46701 C 1435.4818,400.88326 1436.1716,401.08212 1438.4652,403.55695 C 1442.3163,407.7123 1442.0161,413.64334 1437.75,417.69187 C 1430.8976,424.19475 1422.1255,426.27702 1416.6618,422.69769 C 1413.1685,420.40912 1411.6191,416.58023 1413.081,413.84862 C 1414.0195,412.095 1413.3263,410.93479 1407.8311,405.06201 C 1404.349,401.3406 1400.3176,396.50069 1398.8725,394.30666 C 1396.2503,390.32539 1396.2266,390.31511 1386.8725,389.10455 C 1376.5767,387.77212 1368.7805,386.40538 1362.225,384.78365 L 1357.9501,383.7261 L 1348.225,393.61648 C 1340.9482,401.0171 1336.1085,404.91526 1329,409.10151 C 1317.9227,415.62501 1315.8462,418.26264 1317.8917,423.21169 C 1320.6357,429.8508 1320.4745,432.52595 1317.1893,434.86519 C 1312.1388,438.46149 1303.3211,437.45271 1298.1181,432.68338 C 1294.834,429.67301 1292.0483,423.2602 1292.022,418.64999 C 1291.9902,413.07532 1296.8322,408.41191 1303.5603,407.53731 C 1309.4323,406.77399 1313.9566,404.89529 1318.802,401.20825 C 1323.6465,397.52185 1337.3468,380.93081 1336.3236,379.98961 C 1335.8706,379.57295 1330.325,378.0178 1324,376.53374 C 1317.675,375.04969 1307.1,372.11486 1300.5,370.0119 C 1293.9,367.90894 1287.6,365.96341 1286.5,365.6885 C 1282.94,364.79878 1250.6913,353.36378 1244.1453,350.67002 C 1223.8031,342.29902 1201.111,324.36474 1181.7269,301.33883 C 1167.8294,284.83032 1159.3001,265.66244 1156.9082,245.56418 C 1156.3149,240.57888 1155.0069,232.89998 1154.0016,228.49998 C 1152.9963,224.09998 1151.8795,218.02712 1151.5199,215.00471 C 1151.1603,211.98232 1150.1087,208.67094 1149.183,207.64608 C 1147.7477,206.057 1147.5,203.3332 1147.5,189.14136 L 1147.5,172.49998 L 1144.5,172.1699 C 1138.7251,171.53452 1133.8333,164.7638 1133.8333,157.40615 C 1133.8333,144.67432 1139.4195,136.412 1147.435,137.28841 C 1149.5664,137.52146 1149.3695,138.10102 1152.9685,120.99999 C 1156.6033,103.72926 1168.5235,73.05239 1178.7436,54.66782 C 1185.5892,42.35352 1188.9009,38.81834 1191.851,40.67599 C 1192.7579,41.24708 1193.6291,42.36844 1193.7869,43.16786 C 1193.9446,43.9673 1190.6739,50.44407 1186.5184,57.56069 C 1182.363,64.6773 1177.1835,74.99999 1175.0083,80.49999 C 1172.8331,85.99999 1169.9455,93.19998 1168.5915,96.49999 C 1165.5366,103.94506 1161.1871,118.68851 1159.8886,125.99999 C 1157.4277,139.85714 1157.3328,141.09045 1158.408,145.23726 C 1159.0159,147.58176 1159.8439,150.01312 1160.2479,150.64028 C 1160.6519,151.26746 1164.7793,153.66144 1169.4198,155.96027 C 1179.2532,160.83149 1186.4881,167.75456 1187.5258,173.28581 C 1188.394,177.91373 1186.5689,189.33536 1183.8086,196.54853 C 1181.4191,202.7927 1173.9354,211.69373 1167.0818,216.44328 C 1164.871,217.9754 1162.8325,219.96493 1162.5518,220.86446 C 1161.9454,222.80828 1163.3775,238.8264 1164.978,247.99998 C 1167.6381,263.24714 1174.7303,279.17265 1184.6308,292.13036 C 1192.2842,302.14707 1209.0391,318.89038 1218.3865,325.86271 C 1234.8993,338.17983 1245.2972,343.48405 1271,352.70217 C 1285.9175,358.05222 1290.9111,358.11002 1302.9414,353.0719 C 1319.0482,346.3266 1329.7775,345.57172 1345.9284,350.04738 C 1350.5341,351.32366 1356.1206,351.99998 1362.0572,351.99998 C 1370.5767,351.99998 1371.4187,351.80799 1375.6416,348.90255 C 1382.2375,344.36443 1397.6715,337.36968 1403.9773,336.06064 C 1410.3134,334.74531 1413.2535,333.12451 1433.1609,319.97218 C 1443.6116,313.0677 1450.9345,309.05994 1458.6609,306.0164 C 1474.8772,299.62851 1485.0128,294.5752 1489.7049,290.53866 C 1492.537,288.10234 1495.6387,283.60909 1499.2049,276.77674 C 1504.7661,266.12242 1511.5316,257.77614 1518.402,253.0943 C 1520.6559,251.5584 1529.025,246.79922 1537,242.51836 C 1544.975,238.2375 1554.8819,232.56902 1559.0153,229.92173 C 1563.1487,227.27446 1569.8987,223.35266 1574.0153,221.20665 L 1581.5,217.3048 L 1583.9482,210.40239 C 1586.8383,202.25414 1593.6164,194.76863 1601.3897,191.1406 C 1606.4381,188.78434 1624.9507,183.88426 1635.5,182.11198 C 1638.8,181.55758 1644.65,180.19959 1648.5,179.09421 C 1654.9742,177.23541 1655.5939,177.2083 1656.75,178.73335 C 1660.2439,183.34227 1657.5877,184.87709 1640,188.41164 C 1626.4249,191.13979 1611.5669,194.86126 1607.5635,196.53594 C 1599.0887,200.08116 1593.6963,206.29846 1590.9438,215.6982 C 1589.9637,219.04507 1589.9708,220.51526 1590.9785,222.9482 C 1591.6738,224.62668 1592.5703,225.99998 1592.9708,225.99998 C 1593.3713,225.99998 1595.6793,227.34179 1598.0995,228.98178 C 1602.3218,231.84284 1602.9454,231.9637 1613.5,231.96644 C 1621.1484,231.96842 1626.8876,231.36766 1632.336,229.99478 C 1639.8787,228.09421 1644.1683,226.06211 1666.9161,213.6136 C 1672.645,210.47854 1677.9325,208.14382 1678.6661,208.42535 C 1680.3521,209.07234 1680.4132,214.42065 1678.75,215.76676 C 1678.0625,216.32316 1673.675,218.91621 1669,221.5291 C 1638.8687,238.36959 1633.1045,240.35167 1614,240.44132 C 1602.0641,240.49733 1601.2854,240.37386 1596.7455,237.70518 L 1591.991,234.91038 L 1587.7455,236.84978 C 1585.4105,237.91645 1578.325,242.68181 1572,247.43946 C 1564.057,253.4142 1555.7769,258.44199 1545.2297,263.69476 C 1531.6095,270.47801 1529.2863,272.01703 1523.7297,277.93767 C 1516.5734,285.56286 1510.4627,297.03121 1509.4373,304.76108 C 1508.9862,308.1618 1509.3285,312.37889 1510.4734,317.52492 C 1513.0309,329.02032 1511.8363,333.28637 1503.1307,343.74716 C 1495.1976,353.27978 1494.7376,354.65183 1493.9932,370.99998 C 1493.6301,378.97498 1492.8081,386.76678 1492.1665,388.31508 C 1489.5011,394.74734 1485.9987,394.3617 1540.25,393.60938 C 1594.3558,392.85905 1638.363,391.53286 1661.5,389.9554 C 1681.4336,388.59635 1722.9823,383.45 1733.1668,381.07856 C 1743.5013,378.67218 1745.5242,379.28344 1742.9771,384.04281 C 1740.5871,388.50861 1736.8589,389.24767 1688,394.9413 C 1658.7607,398.34861 1597.5828,400.81584 1527.5208,401.41322 C 1489.6248,401.73635 1484.4232,401.96728 1483.541,403.36586 C 1482.8234,404.50344 1483.0297,405.78021 1484.2702,407.8803 C 1486.4198,411.51921 1486.4866,415.86031 1484.438,418.78506 C 1483.0182,420.8121 1483.0217,421.07107 1484.4763,421.62926 C 1485.3565,421.96701 1487.7469,421.98305 1489.7883,421.6649 C 1491.8297,421.34675 1504.75,421.01664 1518.5,420.93132 C 1546.4773,420.75771 1579.163,419.52329 1595,418.04217 C 1600.775,417.50208 1616.525,416.37247 1630,415.53195 C 1689.3834,411.82776 1707.7316,409.94852 1728.8015,405.41252 C 1736.6498,403.72293 1739,404.33853 1739,408.08389 C 1739,410.10788 1736.1099,411.11866 1723.3332,413.56325 C 1705.9021,416.89838 1684.1414,419.27813 1655.5,420.9815 C 1645.05,421.603 1625.25,422.99455 1611.5,424.07385 C 1582.1027,426.38135 1551.8816,427.69266 1510.6328,428.4505 C 1461.19,429.35887 1433.0147,432.81391 1407,441.15862 C 1371.5,452.5459 1346.4736,465.66603 1331.0032,480.99999 C 1323.1879,488.7464 1311.2132,504.52966 1305.3637,514.79433 C 1303.0466,518.86016 1299.7252,526.62699 1297.9827,532.05393 C 1295.338,540.29064 1294.8207,543.45609 1294.852,551.21055 C 1295.0056,589.22856 1303.5153,619.70676 1322.6276,650.69163 C 1342.6708,683.18557 1350.2072,692.3804 1385.6771,727.61577 C 1402.9047,744.72946 1417,759.17223 1417,759.7108 C 1417,760.9109 1413.6934,763.99999 1412.4088,763.99999 C 1411.8952,763.99999 1397.5093,749.70233 1380.4401,732.22742 z M 1313.4349,433.02473 C 1318.0944,431.2532 1315.611,423.99999 1310.345,423.99999 C 1309.0553,423.99999 1308,423.54999 1308,422.99999 C 1308,422.44999 1308.8599,421.99999 1309.9108,421.99999 C 1311.1817,421.99999 1312.5401,420.51583 1313.967,417.56816 C 1316.1669,413.02385 1319.5083,410.42875 1330.9476,404.38035 C 1336.5983,401.39261 1358,380.78766 1358,378.33508 C 1358,377.62614 1359.2375,376.27021 1360.75,375.32192 C 1362.2625,374.37363 1368,370.36896 1373.5,366.42265 C 1384.9184,358.22979 1390.3939,355.2522 1397.4975,353.3727 C 1402.0506,352.16801 1402.6581,352.21361 1404.3301,353.88561 C 1406.1103,355.66583 1406.0893,355.86718 1403.6274,360.61038 C 1399.7512,368.07839 1398.7598,374.03846 1399.9593,382.6625 C 1401.2609,392.0207 1403.4189,396.21453 1410.2636,402.68798 C 1415.5931,407.72838 1420.3923,410.47383 1426.5,411.97621 L 1429.5,412.71417 L 1426.8203,413.8056 C 1425.3464,414.40591 1422.5419,414.63763 1420.588,414.32055 C 1415.8881,413.55787 1414.4693,416.34211 1418.0715,419.25895 C 1424.578,424.52762 1440.8088,415.11675 1437.1159,408.21664 C 1436.2709,406.63772 1435.0684,406.19479 1431.7624,406.24475 C 1429.4173,406.2802 1426.149,405.61115 1424.4993,404.75794 C 1421.4174,403.16394 1416.3155,397.42858 1414.0401,392.99998 C 1413.3337,391.62498 1411.5731,389.23318 1410.1278,387.68485 C 1407.8103,385.20216 1407.4591,383.89266 1407.154,376.59595 C 1406.8414,369.12121 1407.1181,367.57737 1410.0185,360.61016 C 1414.501,349.84263 1419.5806,344.94588 1434.5,337.00955 C 1441.1,333.49871 1449.5108,328.44364 1453.1906,325.77606 C 1469.079,314.2583 1486.9646,308.98538 1493.25,313.96601 C 1495.6372,315.85764 1496,316.8526 1496,321.50746 C 1496,328.47198 1495.1234,330.62769 1487.6964,341.9272 L 1481.5,351.35443 L 1480.8771,367.4272 C 1480.5345,376.26723 1479.6977,385.07498 1479.0176,386.99998 C 1478.3375,388.92498 1476.6436,393.42498 1475.2533,396.99998 C 1473.7787,400.7918 1472.6919,405.69182 1472.6448,408.76066 C 1472.5547,414.63521 1470.8016,415.404 1470,409.9205 C 1469.529,406.69821 1469.2745,406.49999 1465.609,406.49999 C 1458.4368,406.49999 1458.0892,413.09808 1465.0132,417.81195 C 1467.9141,419.78687 1469.3195,420.09153 1473.3765,419.62502 C 1482.3023,418.59862 1485.2196,414.63716 1481,409.27286 C 1478.3728,405.93286 1478.4769,404.09758 1481.5283,399.96156 C 1483.3047,397.55384 1483.8893,395.77241 1483.4938,393.97198 C 1483.1834,392.5583 1483.679,389.63629 1484.5994,387.45467 C 1485.7507,384.72549 1486.5035,378.7796 1487.0286,368.26744 C 1487.8897,351.0294 1488.3448,349.78946 1497.9505,338.51355 C 1504.5311,330.78876 1505.6138,326.9265 1504.1357,316.44808 C 1501.804,299.91684 1503.0721,294.56561 1512.7429,280.12684 C 1518.4184,271.65316 1526.0911,264.55743 1533,261.39298 C 1547.8018,254.61342 1558.2964,248.5875 1569.3,240.54991 C 1576.3382,235.40886 1583.425,230.65238 1585.0484,229.97995 C 1588.1755,228.68464 1588.9212,226.0094 1586.6747,224.14498 C 1585.0574,222.80274 1574.582,227.58376 1563.6939,234.6335 C 1559.7373,237.19533 1549.75,242.86846 1541.5,247.24043 C 1517.8194,259.78966 1514.1074,263.31116 1504.0248,282.79245 C 1497.8444,294.73391 1492.3385,298.80592 1470,307.95652 C 1451.2871,315.62191 1449.4648,316.55872 1437,324.92079 C 1418.9275,337.0448 1414.0034,339.72122 1405.6535,341.95884 C 1396.8757,344.31114 1386.4151,349.28806 1377.5,355.35368 L 1371.5,359.43594 L 1361.5922,359.13321 C 1356.1429,358.96669 1350.6768,358.4474 1349.4454,357.97922 C 1348.214,357.51104 1342.8763,356.39035 1337.5838,355.48881 C 1330.115,354.21654 1326.543,354.07041 1321.626,354.8359 C 1313.6814,356.07278 1301.5,361.03132 1301.5,363.0284 C 1301.5,365.35246 1305.6638,365.34116 1310.4917,363.004 C 1319.4292,358.67744 1337.199,358.1188 1351.7622,361.70653 C 1357.0598,363.01161 1358.1236,363.64425 1358.668,365.81324 C 1359.14,367.69401 1358.8037,368.73794 1357.4057,369.73094 C 1356.3576,370.47547 1353.5339,372.5281 1351.1308,374.29232 C 1348.7278,376.05653 1345.2908,378.39998 1343.4931,379.49998 C 1341.6955,380.59998 1336.1364,386.3074 1331.1397,392.18312 C 1320.5694,404.61282 1315.1206,408.7553 1307.7417,409.97144 C 1300.4804,411.16817 1297.3176,412.53811 1295.9602,415.07429 C 1292.5675,421.41371 1301.2237,433.77589 1309.1849,433.96085 C 1310.1116,433.98238 1312.0241,433.56112 1313.4349,433.02473 z M 1471.7118,385.24998 C 1472.8657,382.56179 1473.4307,377.39431 1473.7073,366.99998 C 1473.9196,359.02498 1474.2876,351.55994 1474.5252,350.41101 C 1474.7629,349.26208 1477.2075,344.87501 1479.9578,340.66196 C 1487.3686,329.30977 1489.1553,325.37582 1488.8062,321.1797 C 1488.5172,317.70642 1488.3143,317.50862 1485.1904,317.65391 C 1480.4866,317.87268 1465.9384,325.11685 1457.5943,331.39516 C 1453.6924,334.33101 1445.8364,339.07286 1440.1365,341.93258 C 1422.7139,350.67381 1414.9421,360.33307 1414.1573,374.22125 C 1413.5945,384.18162 1414.7374,385.49191 1425.2008,386.88207 C 1437.8943,388.56852 1439.4286,388.66833 1455.301,388.83994 L 1470.1021,388.99998 L 1471.7118,385.24998 z M 1393.1377,373.49998 C 1393.4885,369.09998 1394.0991,364.71248 1394.4947,363.74998 C 1395.3338,361.7084 1393.9008,361.47113 1390.6843,363.11907 C 1387.3146,364.8455 1371,377.27752 1371,378.11883 C 1371,379.64522 1383.0694,381.94301 1389.5,381.64091 L 1392.5,381.49998 L 1393.1377,373.49998 z M 1342.7505,370.75422 C 1345.0883,369.516 1346.8511,368.05224 1346.668,367.50144 C 1345.8483,365.0362 1328.4385,364.22752 1323.5,366.42528 C 1320.0551,367.95836 1320.229,368.07799 1330,370.89758 C 1338.4711,373.34208 1337.8514,373.34905 1342.7505,370.75422 z M 1164.4554,209.23667 C 1167.1809,207.17238 1170.8153,203.64208 1172.5319,201.39154 C 1179.1584,192.70352 1182.6724,173.61041 1178.4944,168.99381 C 1176.1247,166.37529 1166.714,160.74923 1161.6266,158.90961 C 1157.2526,157.32796 1154.4731,154.54396 1151.0422,148.30816 C 1149.644,145.76687 1147.4997,143.03611 1146.2771,142.23982 C 1144.2285,140.90555 1143.8267,141.01949 1141.1536,143.69257 C 1135.8756,148.97054 1134.9711,160.74526 1139.5156,165.01462 C 1144.2373,169.45043 1152.3512,166.9945 1149.2708,162.06192 C 1148.2345,160.40267 1148.353,160.02273 1150.077,159.47554 C 1151.2,159.1191 1153.0758,159.46714 1154.299,160.25886 C 1155.5095,161.04247 1157.85,162.01487 1159.5,162.41974 C 1164.9719,163.76243 1169.1684,167.12654 1171.2546,171.84263 C 1175.354,181.11012 1171.3314,195.97702 1162.6309,203.71442 C 1157.5068,208.27131 1156.8092,209.33917 1157.6037,211.40974 C 1158.449,213.61242 1158.8431,213.48742 1164.4554,209.23667 z M 1164.2693,189.356 C 1166.3873,183.4471 1166.4997,176.867 1164.5472,173.09118 C 1162.8235,169.7579 1157.4671,167.13285 1155.7971,168.80292 C 1154.5794,170.02061 1154.432,198.27192 1155.6332,200.21553 C 1156.7157,201.96703 1162.238,195.02295 1164.2693,189.356 z M 1039.5,536.92833 C 1032.5945,535.94236 1021.6042,532.72468 1014.8218,529.70316 C 998.12173,522.26337 990.03196,504.27098 997.1952,490.49999 C 999.99041,485.12633 1010.6808,474.26545 1018,469.36341 C 1027.1539,463.2326 1045.0724,454.5535 1065.5,446.35607 C 1077.05,441.72117 1087.7543,437.01907 1089.2873,435.90696 C 1090.8203,434.79485 1093.7453,433.2824 1095.7873,432.54595 C 1097.8293,431.8095 1104.45,428.96146 1110.5,426.21699 C 1125.5231,419.40205 1133.7384,417.0194 1145.5,416.06614 C 1161.5832,414.76264 1169.5021,416.52786 1179.066,423.54842 C 1182.7005,426.21641 1184.8037,428.88309 1187.458,434.1887 C 1190.8187,440.90624 1191,441.79008 1191,451.45285 C 1191,463.39523 1189.4701,469.4827 1183.931,479.58051 C 1176.2224,493.63335 1155.9196,511.08496 1137.2377,519.71654 C 1112.292,531.24212 1087.3894,537.01916 1061,537.40253 C 1051.925,537.53437 1042.25,537.32097 1039.5,536.92833 z M 1088,530.99765 C 1104.7994,527.94796 1110.89,526.05271 1132,517.30595 C 1144.9166,511.95406 1159.3264,502.68589 1166.1428,495.3458 C 1169.579,491.64553 1175.1656,482.74086 1177.7752,476.80447 C 1182.9583,465.0139 1184.3109,448.1374 1180.5081,442.70806 C 1179.6786,441.52386 1179,439.8301 1179,438.94415 C 1179,436.2042 1171.8184,429.87869 1165,426.6131 C 1159.0553,423.76596 1157.6456,423.50096 1148.5,423.51137 C 1135.5065,423.52615 1125.1711,426.45953 1098.7207,437.63965 C 1087.8421,442.23783 1078.0759,445.99999 1077.018,445.99999 C 1071.8891,445.99999 1029.5615,465.33955 1020.5199,471.81412 C 1007.4701,481.15887 999.62452,490.65261 998.44351,498.52813 C 997.92338,501.99658 998.29933,504.45244 1000.0788,509.21075 C 1004.2544,520.37605 1012.6495,526.22736 1032,531.45937 C 1040.9384,533.87615 1042.5345,534.00013 1059,533.55666 C 1070.4997,533.24693 1080.4431,532.3695 1088,530.99765 z"
         id="path2470" />
    </g>
  </g>
</svg>
